<?xml version='1.0' encoding='utf-8'?>
<svg xmlns="http://www.w3.org/2000/svg" version="1.1" id="Layer_1" x="0px" y="0px" viewBox="0 0 5000 1280.6151" enable-background="new 0 0 5000 1280.6151"> <g> <path d="M4956.4902,918.6837l2.564-823.5435l-27.3008-7.1559c-141.2271-37.0156-201.7217,34.204-190.1787-24.0382 c5.4507-27.4996-1.8906-42.1445-24.2705-48.4136c-43.082-12.0673-146.333-4.2295-161.749,12.2828 c-9.4648,10.1385-58.2344,91.7757-58.2339,97.4804c0.0005,2.7308-6.4741,10.103-14.3892,16.3825 c-13.3354,10.5804-21.4531,11.4073-110.7686,11.2828c-136.4912-0.1898-129.4785,1.6268-205.7383-2.1146 c-71.2544-3.4963-71.5608-3.8202-66.0327-70.0253c2.8462-34.0931,1.8945-43.6833-5.0249-50.6528 c-13.8926-13.9949-66.178-22.047-117.8691-18.1518c-25.7375,1.9398-50.4958,3.3635-55.0176,3.1649 C3789.804,9.351,3761.687,3.1828,3715.9854,40.6988c-12.5708,10.3186-28.6101,18.803-35.6433,18.8591 c-7.0342,0.0533-30.0667,3.7292-51.1853,8.1684c-43.363,9.1149-43.1931,13.738-71.3086,46.9758 c-86.0356-32.8909-86.3979-33.0771-138.3196,23.5482c-15.0452-7.2875-78.2871-38.5296-92.7043-42.5585 c-18.6865-5.2212-63.6353,23.402-121.0984,77.1217c-108.0938,101.0503-38.1809,9.3856-262.7896,362.22 c-57.7913,90.7783-88.8372,147.5085-95.0635,151.3848c-2.5532,1.5898-4.5122-110.4995-4.3469-249.0956 c0.2883-246.8337,0.0667-252.1641-10.7969-259.222c-15.0195-9.7554-71.5303-14.9867-101.7505-9.4141 c-15.1489,2.7926-39.1799,2.0625-62.4231-1.8985c-43.5413-7.4173-62.3518-3.1231-80.8306-0.6271 c-1.853-103.1047-1.8093-145.0812-11.8347-151.3055c-13.6101-8.4491-101.1917-12.299-142.8452-6.2762 c-26.5669,3.8402-49.553,4.1961-63.3633,0.9801c-30.4336-7.088-116.5989-5.7576-142.9353,2.2092 c-21.1184,6.3877-22.1917,7.8321-25.394,34.1815c-4.5913,37.7954-3.4507,213.512-7.2273,217.3103 c-8.4014,8.4466-16.8357-35.5884-17.1094-89.3001l-0.2988-60.0747c-15.2683-9.3829-28.3882-17.4456-43.6582-26.8295 c-864.5243,3.3822-883.7869,1.7095-897.1925,13.8846c-6.3103,5.7303-11.4702,13.629-11.4668,17.5518 c0.0115,12.7399-10.7939,14.2644-26.3162,3.7132c-24.4572-16.6251-44.6635-23.646-68.0464-23.6419 c-21.8896,0.0038-21.8906,0.0052-41.8962,43.0019c-60.051,129.0668-171.2363,394.7393-231.1309,520.2974 c-7.055,14.7894-7.9767-7.9187-8.2305-202.6899c-0.3159-242.6015,3.3062-212.7725-36.7079-302.2748 c-26.5089-59.2923-16.255-83.556-97.1943-82.5069c-272.7914,3.553-244.0317,2.9608-336.0718-4.882 C350.4642,10.3996,349.1674-5.7764,257.1385,1.7046C129.223,12.1022,87.1302-4.5066,49.8908,13.7145L29.4433,23.7203 c-4.6944,898.0837-5.8289,884.9211-18.2126,897.341c-8.7395,8.7657-11.2602,18.5475-11.2305,43.5782 c0.0401,33.7565,8.7254,53.0752,22.4936,50.0297c5.7958-1.2827,8.6232,4.2422,9.8833,19.3058 c1.3605,16.2616,4.8028,22.2502,15.0076,26.1102c26.0964,9.8699,6.0483,41.6613,55.3017,113.7485 c13.9151,20.3671,14.8567,25.0536,11.4883,57.1626c-2.474,23.5741-1.5528,37.5208,2.8249,42.7798 c6.6389,7.9739,4119.3906,7.5132,4749.2598,5.8276c3.0859-78.8405,0.6787-79.89,21.2998-101.9362 c19.9292-21.307,39.2539-59.0623,44.9531-87.8258c6.249-31.5343,26.354-30.0981,22.5786-56.045 c-2.0967-14.4037,1.1909-18.5248,13.3354-16.7169c2.147,0.3201,10.1304-1.818,17.7397-4.7507 c13.0903-5.0452,13.834-7.5264,13.834-46.1814C5000,915.9047,4996.4248,918.6183,4956.4902,918.6837z M4791.6069,849.56 c32.7778-7.4518,48.0044-8.0927,83.8599-3.5289c24.0942,3.0668,46.3501,8.139,49.4595,11.2716 c7.1182,7.1703,9.9668,50.9565,10.9634,61.4147c-205.5161,0.3369-198.3809-2.7091-198.5205-3.8069 c-2.1504-16.7726,2.6963-48.9305,7.8711-52.2254C4748.7119,860.475,4769.5776,854.5683,4791.6069,849.56z M4782.8755,817.3038 c27.3481-11.5676,91.5649-11.84,91.5654-0.3923c0.0005,13.832-38.7568,4.2287-77.2686,13.313 C4767.7354,837.1686,4757.5879,827.9984,4782.8755,817.3038z M4741.4453,130.1689c3.8989-15.6783,71.395-28.9054,125.9473-24.6848 c75.7803,5.8628,67.0977,4.9431,67.0991,92.8744c-45.7666-10.5226-127.1025-24.0311-168.3921-1.7246 c-12.9531,6.9981-22.4785,7.7625-23.4922,1.8853C4740.3354,185.3418,4739.5283,137.8745,4741.4453,130.1689z M4851.2114,226.9586 c0.0005,1.3196-70.582,12.624-80.2788,0.8425c-5.1245-6.2257-4.4092-8.9419,3.4512-13.1167 c14.2261-7.5556,64.6367-13.6499,77.875-9.4161C4867.2563,210.0655,4866.5928,223.8085,4851.2114,226.9586z M4745.1621,275.0514 c25.8516-21.6535,126.2109-35.0586,164.7578-22.0081c19.8589,6.7233,21.999,9.3143,23.5659,28.5403 c1.4912,18.295,0.3867,20.7214-8.1899,18.0029c-69.1826-21.93-140.9956-10.4966-140.9956-5.3239 c-40.9209,15.8886-46.438,15.9663-46.439,0.6507C4737.8608,287.3533,4741.1465,278.4152,4745.1621,275.0514z M4871.1914,329.0197 c-2.7266,2.5985-25.2124,6.4828-49.9712,8.6313c-39.9429,3.4663-45.4346,2.8205-48.686-5.7238 c-6.0493-15.895,12.7007-24.5788,53.1118-24.601c26.2461-0.0144,38.4863,2.3694,43.5107,8.4746 C4873.3047,320.8403,4874.1313,326.2166,4871.1914,329.0197z M4744.9204,380.6509 c20.5894-20.6892,134.0728-31.1965,170.6372-15.8047l18.936,7.9697c0.0024,180.5882,0.1763,334.5895-3.1704,337.9692 c-5.27,5.3259-24.0186-12.2966-84.0947-16.2462c-33.2163-2.1823-46.7969-0.472-71.1011,8.9589 c0,0.5513-31.394,11.6624-35.5083,11.6731C4732.2095,715.1919,4736.4004,389.212,4744.9204,380.6509z M4863.5166,722.9503 c0,4.3658-1.8433,9.0103-4.0957,10.3206c-2.2529,1.3103-24.3701,4.1349-49.1523,6.278 c-39.1812,3.3871-45.064,2.7491-45.0645-4.8842c-0.001-14.3809,27.7095-21.5753,77.833-20.2107 C4856.9595,714.8337,4863.5161,717.5536,4863.5166,722.9503z M4736.7446,792.1959c3.0176-20.749,10.2681-24.6965,59.5513-32.4236 c73.7739-11.5676,129.3926-3.9791,134.9639,18.4087c6.2871,25.2638,0.1084,30.0136-27.9956,21.5212 c-37.6445-11.3761-102.9712-9.541-131.8242,3.7063C4736.6641,819.3748,4732.9653,818.1803,4736.7446,792.1959z M4583.4873,44.9434 c9.4194-9.5026,105.7466-10.6661,122.7563-1.4855c11.3931,6.1499,11.3965,6.2764,7.8203,276.9716 c-5.1216,387.5761-3.7837,573.8284-7.4336,587.916c-3.23,12.4615-10.3213,10.7653-139.6128,10.9772 C4579.9194,181.0789,4571.5469,56.9856,4583.4873,44.9434z M4427.3994,200.0849c1.7598-12.2942,25.7798-18.578,72.6689-19.0064 c62.3315-0.5729,48.9121,15.4824,50.8701,17.4561c-1.5273,10.0811-6.3726,10.9767-63.3735,11.7108 C4428.8755,211.0012,4425.9077,210.5001,4427.3994,200.0849z M4427.7646,232.4797c4.6885-4.7289,77.6841-8.5351,99.7827-5.2029 l25.8022,3.891c-2.3745,73.6619-6.2427,194.5768-6.5283,196.555c-0.4985,3.4489-62.8979-7.9293-97.311,0.0729 c-12.7852,2.972-23.4507,3.8074-23.7036,1.8556C4424.5596,419.9757,4426.4063,233.8488,4427.7646,232.4797z M4538.4233,886.9256 c-50.8042,1.0374-112.8618,2.478-115.2969,0.0148c-1.2471-1.2612-2.2749-47.6085-2.2827-102.9947 c-0.0127-91.1714,0.8931-100.9705,9.5576-103.5069c18.7197-5.4797,89.145-4.4427,116.1997-3.6069 C4545.3647,798.7068,4544.4438,803.7877,4538.4233,886.9256z M4541.1582,911.0956c0.0015,13.6466-54.522,5.9903-99.6729,11.4765 c-16.792,2.0397-25.9927-7.2172-14.4902-14.5798c4.145-2.6534,31.5308-4.8919,60.8545-4.9943 C4531.6274,902.8582,4541.1572,904.3062,4541.1582,911.0956z M4517.895,658.5315c-15.7881-1.8044-42.9575-1.2753-60.3755,1.176 c-32.8516,4.624-44.876,0.0339-26.2681-10.0275c11.7939-6.3763,71.2939-7.8645,98.2612-2.4575 C4558.6616,653.0663,4549.355,662.1275,4517.895,658.5315z M4464.2842,444.9695c85.9883-6.8781,80.4746,12.1245,80.4741,8.626 c0,2.0149-7.0156,5.4991-61.0654,5.5433C4412.6021,459.1971,4400.1406,450.0999,4464.2842,444.9695z M4425.5762,481.6704 c8.9556-5.5882,81.3916-10.2462,101.2285-6.511l19.7671,3.7221c0.0195,183.7779-0.0083,73.6187,0,151.0953 c-97.9155,0.2886-121.6455-0.3118-123.3696-2.0489C4418.5952,623.2897,4420.8452,484.6219,4425.5762,481.6704z M4337.6836,175.7721 c50.6021,0.7442,63.9316,5.1812,63.9336,21.279c0.0044,29.2817-18.1196,2.9493-91.6455,9.4485 c-35.1704,3.109-36.9399,2.6956-36.9419-8.6162C4273.0269,181.7901,4292.5664,175.1075,4337.6836,175.7721z M4276.4551,230.6281 c5.8003-5.8625,98.1011-6.5578,112.8574-0.8515c14.9902,5.8035,15.0449,5.957,15.0527,60.2701 c0.0088,61.3591-3.2227,92.9403-6.8413,136.079c-68.0566,0.1121-124.4448,0.3094-124.6934-2.6079 C4271.0938,402.9579,4274.291,232.8146,4276.4551,230.6281z M4273.9648,453.4954c15.3154-15.7957,124.9507-18.3105,124.9526-2.8689 c0.001,7.1407-78.6812,0.7271-112.1621,7.6973C4266.2031,462.6025,4265.4214,462.3076,4273.9648,453.4954z M4268.3833,483.5639 c12.1611-4.6705,20.3276-11.0932,80.7842-9.3386c45.958,1.3337,52.4331,2.7242,52.0347,11.1736 c-0.6079,12.8958-2.2544,149.6015-2.2627,150.2555l-130.6729,0.3574L4268.3833,483.5639z M4398.9531,662.0964 c0.0078,10.9799-91.5566,3.196-113.0684,11.1381c-13.1602,4.8575-22.9902-4.5167-14.1216-13.4669 C4280.2505,651.2029,4398.9355,642.0775,4398.9531,662.0964z M4277.2183,691.0403c14.6191-5.8841,91.3525-10.4404,107.4673-6.3831 l14.2661,3.5916c0.02,139.4883,1.1382,198.2153-6.8091,198.6235c0-0.5516,8.3716,0.0582-124.4556,2.6127 C4267.646,710.0045,4266.2666,695.448,4277.2183,691.0403z M4265.1499,908.4454c4.3174-7.046,126.7881-6.8901,131.1211,0.168 c1.8726,3.0503,0.1719,6.6481-3.7788,7.9945C4392.4922,916.0566,4250.752,931.9514,4265.1499,908.4454z M4103.1255,186.4523 c12.8799-20.5538,148.0068-8.271,148.0112,13.4486v-0.0003c0.0024,12.5386-8.4917,13.0298-19.2734,6.8763 c-9.5903-5.4734-80.5361-7.1209-117.0425-2.7178C4100.1357,205.8312,4095.4253,198.7402,4103.1255,186.4523z M4110.7378,223.6603 c13.0674-8.452,93.6655-7.138,122.6147,1.9969l17.7905,5.6142c-0.1367,210.1917,3.6313,211.2302-26.6348,204.7605 c-44.9976-9.617-93.9673-0.8618-127.5093,4.924C4098.917,386.172,4102.4883,228.9958,4110.7378,223.6603z M4172.3555,919.9702 c-201.1453,0.3297,72.0938-30.7822,72.0981-7.0114C4246.1787,918.243,4229.3838,919.8767,4172.3555,919.9702z M4097.9849,893.8902 l-0.0439-204.9652l20.5327-5.7699c22.8057-6.4092,83.7407-7.7869,110.1714-2.4925l17.1045,3.4262l0.0361,202.6728 C4147.3345,886.9171,4135.3579,886.3005,4097.9849,893.8902z M4097.8926,463.4477c-0.002-10.1434,105.2207-17.0543,135.5005-8.9015 c21.1768,5.7019,13.8638,13.8906-8.2085,9.1909C4157.4077,449.3099,4097.895,473.6272,4097.8926,463.4477z M4192.3789,663.9318 c-78.4619-0.5875-94.4404,12.2844-94.4424,3.0209c-0.001-3.3718,3.0786-6.2112,6.8433-6.3093s25.3237-2.6843,47.9077-5.7469 C4225.7334,644.9902,4300.4209,664.7383,4192.3789,663.9318z M4244.25,637.6251c-83.6318-6.0035-82.2446-4.5518-146.3174,10.6872 c-0.0293-134.3473-1.2646-156.1331,9.0205-164.7427c6.4429-5.3939,26.1245-7.594,68.2441-7.6297 C4265.709,475.8632,4253.3867,467.6671,4244.25,637.6251z M3923.3269,622.3989c1.8591-503.8822,0.0837-571.611,9.0273-580.6262 c9.396-9.4718,107.405-9.3892,129.3445,0.1062l15.9312,6.8949c-0.1853,24.268-5.4932,858.8867-9.8579,866.0103 c0.0015,6.0125-144.9299,7.8358-145.2861,1.4559C3922.3594,913.9643,3922.7375,781.7405,3923.3269,622.3989z M3764.2766,40.1265 c6.0234-6.3065,112.1243-7.5893,126.7756-1.534c10.446,4.3175,10.1487-1.9254,1.5281,879.0745 c-27.4614,0.652-139.6597,4.4043-140.1978-0.9857C3747.8828,872.0784,3759.0974,45.5494,3764.2766,40.1265z M3603.6394,96.7706 c4.7947-4.8294,55.9861-13.3831,72.1523-12.0561c10.2646,0.8411,45.2834,1.969,56.1921,2.35 c-8.3113,883.4014-10.7852,829.5026-10.2363,829.5017c-1.3606,2.279-29.5471,4.1882-62.6406,4.2425 c-50.2458,0.0823-60.74-1.3669-63.5696-8.7791C3590.2368,898.1479,3598.1448,102.3047,3603.6394,96.7706z M3476.918,116.2001 c16.2168-6.2867,94.6658,35.9186,94.6709,50.93c0.0042,11.759-457.8286,730.5371-458.2178,731.092 c-4.8,6.8461-14.175,12.3614-20.834,12.2508c-28.6355-0.4656-80.8262-36.2721-80.8352-55.4622 c-0.0105-22.3371,158.1946-251.1114,249.8262-409.9028c19.8831-34.4597-12.9839,25.0091,101.6384-159.0776 C3447.4553,150.6592,3468.2974,119.5426,3476.918,116.2001z M3511.4932,921.5574c-168.6416-1.2007-373.3296-1.116-373.333-8.6176 c-0.0215-3.278,21.8486-39.3661,48.5964-80.1927c85.2175-130.0732,319.2991-508.1288,325.2991-508.1323 C3518.6621,324.6111,3512.5984,529.2237,3511.4932,921.5574z M3315.1902,120.2868c15.8169-0.0034,66.2976,25.934,80.9021,41.5675 l12.4248,13.2998c-28.8154,38.0449-29.0134,40.356-29.0129,41.5394c0.001,2.7632-309.7012,493.391-382.6904,611.1872 c0.0005,1.1987-44.0142,69.3054-51.0605,70.5262c-10.6138,1.8381-64.7678-28.0544-82.0884-45.3144l-13.3389-13.2921 C3008.1138,601.6559,3291.4509,120.2919,3315.1902,120.2868z M2721.6951,199.6992c5.5513-5.5853,74.0852-6.0444,87.5818-0.5881 c11.2808,4.5605,9.6472,36.1981,9.9993,717.548c-49.1709,0.0801-98.7888,1.7952-101.8411-6.7461 C2712.8914,897.2019,2717.0466,204.3754,2721.6951,199.6992z M2590.564,199.2838c3.3113-9.7874,85.2937-9.4193,98.7229,0.4411 c9.6211,7.0644,9.9265,22.8292,7.0012,360.9082c-1.6831,194.4126-3.1689,354.0884-3.3057,354.8487 c-10.9336,0.0178,30.6221,1.3318-107.5762,1.5604C2585.4819,897.9631,2587.4678,208.4409,2590.564,199.2838z M2505.1426,190.5098 c-89.0996-9.3056-93.6296,24.984-93.656-17.6839c-0.0095-15.4592,2.2156-18.2041,17.2036-21.22 c21.2175-4.2699,89.8513-3.4306,112.2278,1.37c14.5278,3.1172,16.5239,5.8772,16.5337,22.8568 c0.0061,10.6217-2.4673,19.2396-5.4956,19.1522C2548.9277,194.8967,2527.8621,192.8831,2505.1426,190.5098z M2524.1633,224.9361 c-5.6125,5.2404-76.012,10.9944-91.9812,7.5166c-14.7405-3.2097-11.4863-17.4521,5.4944-24.0507 C2468.9126,196.264,2540.261,209.9066,2524.1633,224.9361z M2434.158,111.3568c5.4714-6.6273,15.1233-8.1214,41.5745-6.4347 c37.5591,2.3958,43.4104,5.1426,38.4849,18.0617c-2.5039,6.5671-12.127,8.5411-41.6602,8.548 C2432.5859,131.5412,2422.0618,126.0118,2434.158,111.3568z M2414.1565,34.7961c62.4902-8.9878,68.5559-7.0415,137.7063-0.1166 c1.4495,24.6794-2.1536-36.6839,3.2881,55.9838c-88.906-0.3815-54.5151-0.2326-144.1799-0.624L2414.1565,34.7961z M2414.3352,258.8041c9.2786-7.7442,132.9922-10.8144,144.6353-3.5921c9.5452,5.9221,10.3132,462.9642,0.1716,462.2394 c-3.7856-0.2693-15.5569-3.0128-26.1577-6.0956c-23.8047-6.9506-100.3806-1.6955-126.676-0.4276 C2406.0684,321.9235,2404.873,266.7012,2414.3352,258.8041z M2545.4595,861.0848c16.8208,6.5984,15.1465,9.4987,15.1736,55.9951 l-148.6902,0.2422c-0.0056-9.1186-1.5525-48.1937,5.8215-52.7839C2428.7461,857.7021,2529.8672,854.968,2545.4595,861.0848z M2422.9087,831.9968c-0.0088-14.0729,20.6826-21.0652,50.3374-17.0114c21.3162,2.9135,26.9739,5.7536,25.6296,12.8623 C2496.4331,840.7709,2422.9165,844.787,2422.9087,831.9968z M2416.9653,798.361c-0.2361,0.0003-1.2461-4.2465-2.2451-9.4376 c-4.6973-24.4162,26.1597-21.06,143.0762-18.4196l3.2969,28.2997C2363.7939,798.2025,2431.5557,798.3403,2416.9653,798.361z M2422.8572,748.1929c-0.001-1.7216,2.5613-7.9495,5.6938-13.8398c4.4099-8.2922,11.6306-10.7174,31.989-10.7436 c27.8496-0.0358,49.2261,10.5972,42.6936,21.2344C2499.3142,751.2261,2422.8611,754.412,2422.8572,748.1929z M2368.699,35.4233 c17.4082,3.3467,15.1565,5.6401,15.1895,54.6183l-154.3232,0.0247c-0.0264-34.9975-0.0166-22.0771-0.0422-57.0477 C2270.9607,28.1854,2301.6177,22.5276,2368.699,35.4233z M2292.2246,105.6719c34.2466,2.9864,48.5027,10.586,38.5774,20.5643 c-0.0005-0.9402-1.3137,5.43-53.4573,9.1377c-46.3799,3.2984-47.7522,3.0507-47.76-8.6358 C2229.5737,109.9875,2252.6646,102.2226,2292.2246,105.6719z M2313.6199,154.9256c63.363,1.44,67.5532,2.2219,67.5596,12.6051 c0.0063,9.9508-2.7764,10.799-27.5464,8.396c-106.999-10.3804-129.5188,15.3858-129.5305-2.131 C2224.092,157.6671,2244.5496,153.3551,2313.6199,154.9256z M2267.5554,218.058c-21.7419,3.6205-32.0498-4.3499-21.7539-16.8221 c14.9202-18.0743,94.062-13.6405,94.074,5.2664C2339.8835,219.1878,2307.9509,211.3341,2267.5554,218.058z M2234.1172,238.0942 c16.949-6.5967,144.3867-4.6762,148.6687,2.239c5.2285,8.4497,1.3638,463.9879,1.2649,481.5124 c-25.863-3.7216-62.1819-10.4427-101.717-6.9984c-0.9863-0.2463-35.5486,3.6262-45.6223,6.6589l-12.5522,3.7787 C2224.7595,272.0412,2223.3726,242.276,2234.1172,238.0942z M2315.7451,862.1427c62.4983-0.0956,62.9219-0.0078,66.3657,13.731 c3.959,15.797-0.7004,30.5452-3.4309,41.5026l-154.0884,0.251C2224.5588,868.1177,2216.1492,862.2952,2315.7451,862.1427z M2296.1814,823.4346c37.3064-0.0546,53.4043,7.1981,37.9131,17.0796c0.0034,5.186-74.2698,7.6399-79.2368-0.4161 C2247.6143,828.3542,2259.6829,823.4879,2296.1814,823.4346z M2224.5112,793.9355c-0.0122-18.3846,0.4236-18.7189,28.9238-22.1956 c36.345-4.4342,96.229-3.8167,114.3472,1.1767c16.2065,4.4664,14.8513,14.8219,17.2866,39.8021 C2227.4875,789.3316,2224.5369,832.8575,2224.5112,793.9355z M2279.8115,731.715c25.7961-3.4984,60.3804,5.6674,51.6587,13.6905 c-8.0659,7.4192-78.5356,12.0609-82.6187,5.4406C2243.1584,741.614,2253.3762,735.3004,2279.8115,731.715z M2192.7148,905.228 c-1.3667,3.9898-11.7351,6.9375-24.4771,6.9581c-20.4285,0.0331-21.8062-0.9106-18.1411-12.4248 c22.1812-69.7509-17.0947-76.949-2.7515-137.1579c6.2498-26.2396,5.1167-56.5746-3.2241-86.2604 c-6.3335-22.5425,25.5432-8.2641,16.563-28.1303c-7.0266-15.5473-9.396-69.4223-3.9854-90.5913 c5.5671-21.7734,10.0105-19.5844,40.4094-22.6023C2194.8811,933.607,2192.1626,905.1862,2192.7148,905.228z M2186.1355,427.8029 l7.5828-16.6139c1.4309,23.0966,3.8718,52.0624,1.9399,89.3065c-1.6238,31.2976-1.7126,31.4464-9.7222,16.3493 C2175.9045,497.9411,2176.0122,449.9816,2186.1355,427.8029z M2196.6028,275.5506c0.0605,90.947-0.5872,127.3334-4.4683,127.3362 c-8.8782,0.0063-28.8882-26.1584-34.2056-44.7284c-6.3142-22.0501-5.4229-59.8899-5.4382-82.5862L2196.6028,275.5506z M2137.8608,128.89c-2.0496-5.3517,0.0474-8.354,5.8369-8.3553c10.1206-0.0022,19.293,17.6765,10.6697,20.5648 c-4.9475,1.659-3.1106,19.088-3.1111,18.3284c1.7983,12.2478,0.2192,16.4761-6.1531,16.4781 C2118.3416,175.9144,2144.0916,145.1604,2137.8608,128.89z M2143.9255,181.4456c11.0117-0.0036,11.7485,50.6031,7.5137,53.2345 c-5.864,3.6429-16.8394-19.6771-13.447-28.5708c1.6155-4.2332,0.5215-9.1941-2.4304-11.0235 C2128.6255,190.7852,2134.3494,181.4486,2143.9255,181.4456z M2135.6316,486.2442c4.6641-2.8986,5.1401-5.657,1.3799-7.9868 c-6.9036-4.2756-3.5542-49.0885,4.8496-64.88c4.9614-9.3222,7.3552-10.0031,14.4426-4.1055 c4.6726,3.8887,6.0068,7.9048,2.9636,8.9255c-3.043,1.0208-4.2615,6.7182-2.7095,12.6609 c1.6777,6.4238,0.0518,10.8078-4.0098,10.8109c-5.3972,0.0042-5.3892,1.7215,0.0608,8.3045 c3.7778,4.5642,4.4407,8.3009,1.4717,8.3033c-7.0398,0.0057-5.4983,33.2096-0.0649,33.2049 c3.417,0.0082,4.6799,8.3468,4.1196,8.3122c0.0073,10.8898-13.2546,10.6525-22.406-0.4012 C2129.8342,492.275,2129.8164,489.8589,2135.6316,486.2442z M2115.4631,297.7361c-7.6372,0.0041-7.4802,1.4511,1.2046,11.0736 c11.3469,12.5721,10.6604,11.0477-16.5376,11.8351c6.6726,3.2258,24.7776,10.6235,24.9058,18.0769 c0.2761,20.9516,14.4814,30.98-7.5779,30.9945c-17.3721,0.0114-21.6536-12.9459-22.2095-67.2331 c-0.4304-41.9613,3.0913-49.3065,17.4084-36.3127C2125.4158,277.7503,2127.1919,297.7299,2115.4631,297.7361z M2120.6025,905.3878 l-6.7126,12.5123c-556.5126-0.6815-793.9879-0.1162-871.0426-4.7374c-0.6625-40.3293,0.6356-61.9435-15.2184-101.0167 c-3.9341-9.698,12.558-10.0158,442.2378-8.5328c432.6353,1.4932,445.7925,1.848,451.5562,12.1666 C2129.4617,830.1707,2128.915,889.8966,2120.6025,905.3878z M1108.7283,849.9607c-5.8174-7.0079-5.6962-7.0731,51.3037-27.4975 c28.4723-10.2019,49.4362-8.5184,26.2781,2.11c-13.1011,6.0123-12.8624,6.194,4.547,3.4575 c32.749-5.1472,18.5635,12.9741-21.1177,26.9755c0.0005,0.5545-31.1467,10.5445-45.0748,16.7538 c-9.0591,4.0404-19.9772-5.4084-13.6245-11.7902C1112.8387,858.1631,1111.7986,853.6589,1108.7283,849.9607z M1198.4016,701.9731 c-6.0122,0.0075,20.8862-1.6229-39.552,28.3788c-54.0742,26.8435-56.5902,17.9249-3.5793-12.6899 C1181.4321,702.554,1194.3014,697.8728,1198.4016,701.9731z M1172.3574,691.9931c4.5471-7.391,13.8259-7.1996,13.8324-0.0169 C1186.1965,699.356,1167.8245,699.3613,1172.3574,691.9931z M1202.8173,724.7026c0.006,6.5428-65.0396,36.61-78.301,43.647 c-2.0031,1.0628-5.1477-0.5034-6.9883-3.481c-1.8412-2.9789,15.1581-14.3631,37.7731-25.2985 C1199.7365,718.0833,1202.8104,717.121,1202.8173,724.7026z M1141.8341,716.3834c-31.3134,12.6006-33.8741,11.1036-8.1932-4.7886 c23.9608-14.8281,30.4191-16.7606,30.4261-9.1031C1164.0695,705.2109,1154.0649,711.4621,1141.8341,716.3834z M1156.962,760.6332 c49.9343-22.8824,52.0695-23.4788,55.0685-15.3969c1.2567,3.3867-10.8729,11.6125-26.9543,18.2805 c-45.6025,18.9094-70.7208,38.0261-70.7351,22.5114C1114.338,782.8045,1133.5179,771.3768,1156.962,760.6332z M1158.1997,784.2092 c52.2616-22.6213,55.7147-23.386,55.7247-12.3506c0.0099,11.0656-70.631,33.3378-89.5366,43.0079 c-5.7427,2.9374-10.7555,2.4965-13.0065-1.1443C1106.6403,806.0535,1104.2488,807.5605,1158.1997,784.2092z M1170.7726,877.0862 c-46.9648,15.6896-56.3314,17.3223-56.3384,9.8198c-0.0024-2.642,18.0439-11.0085,40.1014-18.59 c55.9426-19.2294,55.05-19.0419,57.6276-12.0861C1213.5201,859.8923,1196.3647,868.5373,1170.7726,877.0862z M1130.8542,897.2275 c13.1077-0.0209,71.2357-22.2915,80.3392-22.3056c8.2581-0.0128,8.8096,34.619,0.6382,40.1116 c-9.6821,6.5084-39.187,4.943-46.6062-2.4734c-8.9384-8.9344-15.8365,0.0256-17.6311,0.0285 c-11.7982,7.4073-29.134,8.9959-34.9324,3.2008C1107.1813,910.311,1119.9878,897.2448,1130.8542,897.2275z M1192.1835,647.6071 l-3.6986-19.6617c-5.3856-28.629,0.0056-79.419,9.4354-88.8884c12.7408-12.7933,880.1378-7.8505,880.6051-7.2939 c1.3333,1.5883-2.9719,84.4541-4.4641,114.832L1192.1835,647.6071z M2104.0913,477.6967 c-0.5515,0.0005-0.1475-2.0274,1.657,27.6822c-553.4148,0.4964-566.7084,0.0784-872.6866-4.7625 c-8.4628-40.0608-10.5743-41.5142-0.0031-99.8171c6.9648-0.0489,876.9629-6.6155,881.7529-4.7857 C2120.8074,398.304,2101.5959,436.5833,2104.0913,477.6967z M2120.6138,681.0862c6.1951,9.7778,5.709,67.0533-0.7119,84.0486 l-5.3411,14.1349c-19.5229-0.0046-862.3982,0.6049-871.5897-2.6564c-10.1765-3.6079-3.0344-42.3925-15.2766-71.6808 c-4.5739-10.9425-8.3186-22.8671-8.3219-26.4971C1219.3636,668.5333,2114.3391,671.1805,2120.6138,681.0862z M2121.2456,635.4698 c-15.5356,0.0175-18.1421-4.4819-18.1606-31.3529c-0.0105-15.457,2.436-24.0232,6.8772-24.0831 c5.4602-0.0726,5.4468-1.0113-0.0698-4.5193c-4.5696-2.9062-5.751-10.5231-3.4392-22.1729 c3.9556-19.9258,7.9448-24.1536,17.3169-18.3503c4.6345,2.8699,5.1602,15.4843,1.8889,45.3074 c-4.1313,37.6571-0.448,47.9031,0.9202,48.2449C2130.55,633.5807,2129.1028,635.461,2121.2456,635.4698z M1248.8315,123.4458 l9.0142-13.8129c631.4921-0.1227,687.8794-0.7028,847.6606,6.9609c0.2571,139.7579,0.1038,55.3496,0.2136,114.7005 c-646.6494,0.2655-857.778,1.4065-862.7297-6.5782C1234.9668,211.7785,1239.2113,138.1867,1248.8315,123.4458z M1218.7039,262.5193 c8.7517-10.5864,63.8796-8.9371,848.1868-6.2872c3.5852,119.5322,4.0879,90.9063,4.0938,99.1338 c0.8813,8.8388-0.8801,16.314-3.9133,16.6147c-7.3367,0.7242-841.9186-1.7064-853.3151-1.737l-3.5114-13.9706 C1204.7589,334.446,1210.3351,272.6418,1218.7039,262.5193z M1200.3864,398.0488c17.9896-0.0127-10.5181,26.955,3.8396,95.2753 c4.0775,19.4003,3.5325,20.494-11.0621,22.1923c-10.5428,1.2261-17.7479,6.83-23,17.8858 c-10.3431,21.7756-14.3073,79.0126-7.2408,104.558l5.757,20.8135c-84.0437,48.5156-82.9753,41.7839-85.3427,106.0973 c-3.5089,95.3435-5.6036,71.91,4.8251,152.6633c-30.2524-0.084-124.2813,1.6878-120.8956-6.0369 c5.4921-12.5294,83.1819-208.0149,94.6381-233.2351c15.5153-34.1563,87.021-187.7546,104.1693-227.5012 C1184.3606,408.3756,1191.0789,398.0554,1200.3864,398.0488z M802.198,858.9118c0.9468-29.8925,46.3422-112.1246,46.3347-119.8038 c-0.0005-0.5549,263.5493-600.965,271.9631-611.3639c14.499-17.9251,76.2567,23.1093,76.2659,33.2871 c-0.0077,7.5384-32.2296,84.0333-66.4243,157.6895c-30.0424,64.7102-18.2393,47.3572-30.7833,71.0804 c-22.4517,42.4559-65.7256,152.3253-79.2727,181.7263C869.8531,897.9762,892.0271,924.037,826.525,890.9365 C803.825,879.4656,801.6381,876.5871,802.198,858.9118z M669.7405,102.7999c10.0351-10.0624,79.6053-9.1434,92.0786,1.2151 c9.2909,7.7147,9.6703,29.8717,6.989,407.9482c-1.5591,219.8539-2.9175,400.343-3.0186,401.1058 c0.5543-0.0009,6.6739,1.3764-106.5315,1.5597C661.8829,322.8401,661.7424,110.8191,669.7405,102.7999z M522.4854,106.2853 c11.5309-11.5587,91.2426-10.453,110.6257,1.5319c6.9385,4.2882-0.4799,177.832-0.5153,806.854 c-73.1503,0.1185-116.3865,1.5204-116.6921-6.7501C515.8273,905.8596,515.7386,113.0487,522.4854,106.2853z M378.315,105.7042 c7.6172-7.635,88.6618-10.6341,105.6631-3.9118c12.0892,4.7808,10.2158,19.3555,6.358,810.3322 c-81.8944,2.3123-118.3574,4.5844-118.6227-3.7853C371.6961,907.7746,368.2329,115.8102,378.315,105.7042z M216.9344,25.6354 c23.4358-14.57,102.5002-8.66,120.1192,8.9751c10.4926,10.5016,9.5557,8.1579,7.1403,880.5278 c-100.0789,0.162-131.9355-0.364-134.1073-2.5308C204.2517,906.7859,211.0252,29.3093,216.9344,25.6354z M52.6496,388.9225 c3.2116-195.6667,4.5102-218.2553,12.504-217.4931c4.9056,0.4653,29.5425,0.5521,54.7462,0.1944 c41.3147-0.5898,45.8183-1.7063,45.8072-11.3598c-0.0193-16.8341-11.8911-14.6721-111.1149-8.7122 c-0.087-74.0058-0.0532-44.0859-0.1345-118.9919l19.4759-3.6573c31.9476-5.9988,96.0565-0.3481,105.7272,9.3175 c10.0154,10.0094,7.8617,90.3994,0.7913,874.4068c-104.3348,2.6713-130.5821,2.1748-130.8004-1.0015 C47.9592,886.8627,49.8299,560.6876,52.6496,388.9225z M90.0242,1078.106l1.7461-15.3474l105.5025-0.1982 c-1.4492,14.8865-1.1113,29.075-17.1854,61.127c-0.5558,0.0011-13.6474,27.5809-26.6923,37.2198 c-11.1004,8.2023-14.1917,8.4167-23.8818,1.6526C113.6954,1151.5197,87.9385,1096.4355,90.0242,1078.106z M2147.481,1144.4792 c5.5427,13.4061,5.5623,18.4832,0.0938,25.114c1.8425-1.3917-11.9104,18.9346-27.9978-0.475 c-6.0857-7.3424-5.9712-11.1998,0.6875-23.0804C2131.6799,1125.668,2139.5139,1125.2198,2147.481,1144.4792z M2243.9783,1064.3376 c-0.1731,54.0704,2.1287,59.9177-17.1636,83.9713c-0.0371-0.5542-16.8203,21.1167-27.626,22.7748 c-14.4595,2.2189-31.4697-17.199-49.3723-56.3618C2124.3948,1059.1128,2135.0552,1064.4204,2243.9783,1064.3376z M2121.7153,1087.5385c-2.0447,47.9882-38.9771,80.6235-30.8862,72.4801c-14.968,16.4744-26.4243,15.7672-43.361-2.6785 c-16.1752-17.616-37.8081-62.6003-37.8195-78.6443c-0.0135-18.9907,26.3356-16.6097,113.0491-14.2195L2121.7153,1087.5385z M2014.9559,1137.3508c21.8727,35.4249-19.2855,42.7585-25.1246,27.5278c-3.683-9.6044,10.6227-34.2814,15.3168-43.4133 L2014.9559,1137.3508z M1963.8258,1154.7444c-26.871,28.5659-37.1548,24.3695-66.8486-27.2833 c-17.2495-30.0049-13.4731-41.5573-11.4799-62.5366l107.5901-3.3722C1993.1212,1108.8245,1996.0297,1120.5107,1963.8258,1154.7444z M1890.3505,1164.5193c-4.1913,10.9889-23.5121,10.8291-27.7532-0.2306c-3.6997-9.6456,6.2644-35.6521,13.6648-35.6669 C1883.5579,1128.6072,1893.9487,1155.0836,1890.3505,1164.5193z M1824.3267,1169.6992 c-16.1827,6.2657-22.9786,3.3893-37.7416-15.9789c-32.4102-42.5178-30.7915-70.1119-30.8081-91.7217l107.6443,2.9668 l1.7356,20.8768C1867.0603,1108.7443,1840.415,1163.4706,1824.3267,1169.6992z M1762.2908,1142.5317 c4.7593,10.4518,4.5767,15.6666-0.7775,22.155c-16.5908,20.1072-34.8018,1.6648-22.0386-22.3191 C1748.5725,1125.2732,1754.4502,1125.3149,1762.2908,1142.5317z M1710.7358,1153.2704 c-25.7943,31.4718-37.3402,27.147-67.1782-25.1692c-17.3384-30.3989-14.7834-50.3164-14.7955-65.4615l111.6591-0.2104 C1730.5726,1119.8616,1729.1522,1130.7996,1710.7358,1153.2704z M1636.4987,1164.7584 c-6.5592,17.1926-43.6094,7.7592-26.3827-25.7378c4.3619-8.4822,9.0461-15.4238,10.4095-15.4265 C1627.985,1123.5792,1640.6842,1164.7498,1636.4987,1164.7584z M1582.082,1152.7566 c-0.0005-0.5543-18.2855,20.8127-26.3022,20.8293c-19.8809,0.0414-62.2144-74.4832-55.9668-98.528 c3.1462-12.1056,5.2141-12.512,56.3822-11.0892c46.7903,1.3015,53.3433,2.7086,55.093,11.8324 C1614.8853,1094.5559,1600.83,1131.589,1582.082,1152.7566z M1501.4915,1134.4309c12.2501,22.8738-3.6823,50.0615-18.1335,35.6127 c-6.2203-6.2181-4.1207-26.8584,3.8467-37.8113C1494.4833,1122.2246,1495.0021,1122.3041,1501.4915,1134.4309z M1485.0044,1080.9197c-0.158,26.6838-29.7494,92.8762-55.0696,92.9288c-18.5706,0.0387-50.6393-49.5958-58.2754-90.1981 l-3.8593-20.519l117.3105-0.2211L1485.0044,1080.9197z M1379.4165,1164.4261c-12.026,21.6-38.2434,3.7374-23.5153-24.892 c4.3654-8.4861,9.0533-15.4309,10.418-15.4336C1368.1625,1124.0969,1387.472,1149.9558,1379.4165,1164.4261z M1354.163,1089.7075 c-1.7993,40.8014-38.5981,84.379-57.2253,84.4177c-11.1061,0.0232-32.8187-31.5332-46.5133-67.601 c-18.5657-48.897-12.3519-43.8193,104.7869-40.5979L1354.163,1089.7075z M1249.6311,1141.8187 c6.0159,8.5845,6.8296,14.7966,2.9048,22.1676c-11.8322,22.2198-32.5681,2.7335-24.4534-22.9807 C1232.5995,1126.6929,1239.2072,1126.943,1249.6311,1141.8187z M1199.4928,1152.4653 c-0.2771-0.5538-19.2992,21.9009-26.8519,21.9166c-11.674,0.0243-34.1516-30.804-46.5062-63.7877 c-19.0884-50.9597-19.1005-50.9489,53.2305-48.1331c38.6011,1.5021,45.8944,3.3236,48.7025,12.1613 C1233.7156,1092.3954,1220.0664,1129.5785,1199.4928,1152.4653z M1121.3544,1137.4109 c10.6473,22.3073,2.6018,27.7179,3.5444,27.7159c-6.1188,10.9862-16.3608,12.0844-25.7001,2.7544 c-8.3347-8.3239-8.3955-16.7129-0.2534-34.6713C1107.337,1114.7019,1110.8284,1115.3563,1121.3544,1137.4109z M1098.0111,1083.3218 c0.0427,46.0948-51.4634,91.35-54.9624,91.162c-18.8203-0.996-55.7115-61.3138-55.7399-91.1411l-0.0186-19.4956l110.7026-0.2086 L1098.0111,1083.3218z M989.858,1139.0773c7.2678,11.0804,8.5585,17.8497,4.6069,24.1545 c-6.1292,9.7789-19.3925,14.0026-25.3353,8.068c-6.3087-6.3008-4.4715-26.8699,3.3617-37.6307 C979.304,1124.3085,980.3951,1124.6482,989.858,1139.0773z M970.6998,1083.4686c0.0473,49.3516-45.2802,91.4285-56.1951,91.4512 c-19.5138,0.0406-54.5247-58.4807-54.5569-91.1959l-0.0193-19.6367l110.7526-0.2087L970.6998,1083.4686z M864.4545,1157.8605 c-2.0111,17.4209-18.0974,21.9568-25.9449,7.3145c-8.1019-15.1163,7.7136-38.0864,19.4999-28.3209 C862.4623,1140.543,865.3622,1149.9962,864.4545,1157.8605z M810.9468,1154.3315c-10.7954,11.4644-20.9922,20.7174-22.6593,20.5597 c-6.8581-0.6433-27.9799-18.041-27.9849-23.0502c-0.003-2.9712-4.9119-12.2819-10.9089-20.6913 c-14.6849-20.5933-21.1266-60.7557-10.7748-67.1855c9.7188-6.0421,84.7778-1.0226,101.923-0.1859 C843.0227,1087.8291,849.3358,1113.5629,810.9468,1154.3315z M735.7444,1139.2628c9.7343,20.478,5.7151,21.0382,2.3799,27.738 c-9.2834,11.2333-14.4469,10.4712-24.3098-3.5876c-7.3828-10.5228-7.406-13.7489-0.2001-27.7429 c4.4841-8.7094,9.2194-15.8375,10.5215-15.8401C725.4384,1119.8276,730.6622,1128.5723,735.7444,1139.2628z M715.8966,1075.7062 c0.0223,21.9135-17.6216,60.4562-37.3882,81.6705c0.0006,0.6249-17.6958,18.0724-22.4323,18.0823 c-10.3438,0.0215-33.3718-32.7916-45.2631-64.4963c-21.1093-56.2847-20.5472-48.9958,105.0679-50.7346L715.8966,1075.7062z M608.5378,1161.3782c-9.4589,14.3734-16.9266,16.3055-25.0891,6.489c-7.7026-9.2622-2.5376-16.2437,11.8347-44.1522 C612.5775,1146.5172,616.6254,1149.0886,608.5378,1161.3782z M549.4655,1161.1447c-9.4844,8.015-19.4214,14.5765-22.0822,14.582 c-5.9073,0.0123-28.7676-29.9069-40.374-52.8412c-10.67-21.0822-17.8781-57.8417-11.5162-58.7292 c6.1875-0.8623,95.6515-4.0741,107.3581-4.5132C582.8961,1102.4849,586.2638,1130.0463,549.4655,1161.1447z M480.7778,1162.9026 c-3.9089,10.2324-24.9726,9.3105-29.0444-1.2719c-3.6122-9.3881,8.0402-35.7245,15.8134-35.74 C476.1576,1125.8737,484.8606,1162.8942,480.7778,1162.9026z M398.9884,1170.4423c-13.9019,0.0288-46.9077-52.1537-49.0999-77.6305 c-2.8462-33.0693-4.1884-32.2576,52.7223-31.9034c49.2888,0.3059,52.7408,1.0726,53.3496,11.8484 C459.0252,1126.9756,414.1879,1170.4108,398.9884,1170.4423z M350.9247,1139.8398c8.3339,18.2402-0.7766,19.8466-0.774,22.2112 c-16.3494,19.7732-34.4222,2.3666-23.2044-22.3519C334.7839,1122.4275,342.9922,1122.4756,350.9247,1139.8398z M299.3863,1149.2863 c-18.4043,23.3207-31.6686,26.7734-45.0939,11.7377c-14.8121-16.5889-31.3567-53.0284-35.2676-77.6781l-3.7438-23.5963 c89.7363-0.1682,106.73-1.4829,110.7558,8.9775C331.736,1083.5332,317.632,1126.1665,299.3863,1149.2863z M219.719,1159.2971 c-7.8745,24.9291-30.6599,2.3429-30.6715-7.8618c-0.0099-8.6439,13.138-36.0237,17.3273-36.0875 C213.3147,1115.248,223.2726,1148.0466,219.719,1159.2971z M4833.4976,1252.144 c-480.5259,1.2411-4414.1484,6.6843-4694.3042,1.5797l-0.0431-37.271c195.8475-14.5536,3201.4641,1.0404,4697.7686-0.1212 C4836.0889,1225.0176,4834.3271,1243.4581,4833.4976,1252.144z M3486.0903,1173.7114c-9.1707,9.5441-13.4807,8.7565-30.019-5.4867 c-37.3899-32.2012-40.9924-75.546-44.8579-103.8397l108.5603,2.9736C3518.905,1113.3438,3522.0486,1136.2899,3486.0903,1173.7114z M3418.5081,1166.6851c-8.479,10.3008-12.4043,10.6676-21.075,1.9656c-14.0322-14.0829-0.6487-33.8512,8.8435-51.1346 C3422.1343,1150.9159,3426.5293,1156.9399,3418.5081,1166.6851z M3365.1157,1158.9954 c-20.5715,24.6488-31.7607,21.2866-56.3701-16.9401c-22.887-35.5511-32.1289-63.7424-23.6863-72.2537 c2.8396-2.8636,28.4163-4.531,56.833-3.7043c49.698,1.4448,51.73,2.0005,53.5117,14.6378 C3397.8511,1098.0878,3382.2019,1138.5227,3365.1157,1158.9954z M3288.8093,1139.4615 c8.4124,15.6837,9.0183,20.7041,3.3325,27.6099c0.5493,0.137-11.698,16.677-26.4707,1.8539 c-8.2671-8.2919-8.3235-16.6487-0.2341-34.5381C3273.7659,1115.9657,3276.5278,1116.5657,3288.8093,1139.4615z M3232.8232,1160.4313c-16.5901,17.7311-23.7795,18.8662-35.4404,5.5974c-12.906-14.6864-35.6165-62.6206-39.2236-82.7893 l-3.2109-17.9496c64.9988-0.1232,109.4497-1.6224,110.1895,6.6959C3267.6331,1100.1917,3253.825,1137.985,3232.8232,1160.4313z M3163.2461,1139.5427c12.5349,19.2014,3.1824,24.3456,4.2656,24.3434c-6.1023,9.8121-24.5071,14.8721-30.873,8.4866 c-12.8098-12.8491,9.1138-38.1467,16.6697-48.052L3163.2461,1139.5427z M3087.1511,1175.9271 c-16.4612,0.0344-53.345-63.1682-53.3582-91.4343l-0.009-19.3735l107.1558,2.9596l1.6992,17.5463 C3145.916,1119.4777,3103.4194,1175.8932,3087.1511,1175.9271z M3036.2488,1136.7383c11.2634,21.856,2.0139,28.2888,3.051,28.2866 c-6.6294,12.4806-16.6438,14.163-26.353,4.4258c-10.8574-10.8883-7.7185-13.3452,14.4011-49.986L3036.2488,1136.7383z M3017.303,1083.5923c0.0173,36.6997-43.5918,92.5714-58.6487,92.6029c-18.5559,0.0388-64.3811-88.0792-54.3247-104.4668 c4.8899-7.9731,94.3906-6.1427,112.9651-6.1779L3017.303,1083.5923z M2912.5583,1168.4065 c-6.6409,8.0615-13.5579,9.2095-25.7822,4.278c-9.6909-3.9094-8.5493-24.6394,2.2112-40.1138l9.0981-13.0842 C2913.6919,1150.0026,2920.0991,1159.2527,2912.5583,1168.4065z M2888.6865,1088.2819 c-8.1714,51.5518-37.7224,70.8923-33.8262,70.8843c-7.9358,9.5016-16.6843,17.2803-19.4402,17.286 c-15.5735,0.0326-52.7771-59.1709-55.5103-88.3384l-1.8125-19.3466c70.0767-2.0763,44.2078-1.3099,114.2192-3.3834 L2888.6865,1088.2819z M2783.425,1145.0519c8.9341,13.6726,8.3513,15.8203,1.1565,23.0698 c-10.1021,10.1781-10.7092,10.2367-19.0828,1.8435c-8.5879-8.6077-8.3489-16.4888,0.8835-29.2046 C2773.541,1130.8986,2774.304,1131.0907,2783.425,1145.0519z M2729.2407,1162.7455 c-24.6001,24.7844-39.7905,16.4323-67.092-36.8955c-15.3894-30.057-13.3506-45.2654-13.3586-59.6021 c58.6633-0.1112,110.03-0.3789,110.5127,3.9373c0.2539,2.2799,1.2231,10.364,2.1553,17.9642 C2763.6589,1106.0903,2746.854,1144.9994,2729.2407,1162.7455z M2653.3989,1145.9388c5.7283,11.6238,5.8843,16.6117,0.7148,22.8843 c-15.8162,19.1937-33.0659,1.9425-24.0034-24.0067C2636.4238,1126.7378,2644.1206,1127.1093,2653.3989,1145.9388z M2632.291,1088.3162c0.0134,24.1071-26.2048,73.522-44.1521,83.2113c-14.5344,7.847-18.5442,6.9663-31.5681-6.9359 c-16.4219-17.5262-34.1064-58.8873-34.262-80.1281l-0.1316-17.9757l110.1013-0.2086L2632.291,1088.3162z M2525.7573,1168.7913 c-4.1414,10.8628-19.3794,10.9591-23.5586,0.049c-4.8713-12.7225,2.7212-35.9454,11.7583-35.9636 C2522.9939,1132.8584,2530.6133,1156.0493,2525.7573,1168.7913z M2471.7654,1159.8304 c-0.0005-0.563-16.7415,17.4164-20.7329,17.4247c-6.6062,0.0138-30.5793-29.4111-43.1555-52.9669 c-14.0093-26.2443-18.7463-60.6057-8.2395-59.7814c8.7896,0.6902,89.3215,1.7643,106.0208,2.0122 C2505.6738,1092.6641,2508.812,1121.6697,2471.7654,1159.8304z M2401.0039,1144.054c5.522,13.3259,5.5337,18.3865,0.0706,25.0131 c-1.0991,0.0022-12.1838,19.8911-26.3267-2.8c-5.6975-9.141-5.4028-14.1249,1.6465-27.8459 C2386.2131,1119.3097,2391.251,1120.4633,2401.0039,1144.054z M2331.4802,1170.2705c-10.897,7.1906-13.2195,6.0385-31.8977-15.8176 c-18.2271-21.3285-41.4602-78.6017-34.6616-85.4467c1.4683-1.4773,26.5273-3.2074,55.6851-3.8447 c45.6328-0.9974,53.4199,0.1494,55.9805,8.2456C2382.3667,1091.6786,2362.1353,1150.0371,2331.4802,1170.2705z M2273.1162,1166.4978c0.551-0.0012-12.9072,24.6235-24.8484-1.6272c-6.7891-14.9235-0.8413-19.4406,13.1035-38.0453 C2276.7598,1150.3524,2281.0168,1153.7664,2273.1162,1166.4978z M4762.3477,1143.5751 c0.5464-0.0011-18.6929,28.8873-30.1787,28.9114c-15.0674,0.0315-54.2319-62.4703-54.3042-86.6652l-0.0562-17.9071l103.7979-0.1976 C4781.6084,1102.6353,4783.9819,1111.1285,4762.3477,1143.5751z M4800.0391,1151.5835c4.5615,7.285,3.9492,11.5608-2.605,18.1843 c-7.7837,7.8682-9.2466,7.8376-15.9756-0.3243c-4.9702-6.0297-5.7148-11.6968-2.2627-17.2234 C4786.4028,1140.6809,4793.0825,1140.4771,4800.0391,1151.5835z M4683.2783,1153.3036 c0.0015,16.4011-12.1309,26.9091-20.8921,18.0945c-13.3755-13.4576-0.9243-48.7307,13.0757-37.043 C4683.4897,1141.0557,4683.2783,1154.9238,4683.2783,1153.3036z M4635.7954,1149.27 c-16.9849,26.4365-27.4258,29.0743-43.9888,11.1112c-16.5298-17.9268-39.6963-64.187-39.6982-79.2706 c-0.0015-12.698,1.0498-12.9591,52.0972-13.0563c42.3638-0.0807,52.7051,1.52,55.3926,8.5734 C4664.2598,1088.8676,4653.4961,1121.7189,4635.7954,1149.27z M4555.6802,1172.1605c-9.2383,7.7495-25.4297-8.2876-25.4316-25.1896 c-0.0015-9.9198,14.6333-28.8157,17.897-23.1067C4559.5454,1143.8143,4570.4111,1159.8055,4555.6802,1172.1605z M4506.8623,1151.6285c0-0.5511-17.3364,23.1614-23.3042,25.1527c-7.3091,2.4368-57.2002-41.5698-57.2065-88.8218l-0.0029-19.5671 c84.5586-0.161,103.7886-1.3684,107.5396,8.476C4539.0674,1090.4623,4526.1719,1126.1359,4506.8623,1151.6285z M4431.4985,1170.7634c-9.1606,11.1464-14.5322,9.8751-24.7817-5.865c-10.2207-15.6984-8.3091-14.7665,10.2119-43.2999 C4432.4937,1152.1371,4439.0015,1161.6339,4431.4985,1170.7634z M4387.1406,1137.7914 c-23.2729,39.2134-33.9385,45.0062-49.6582,26.9708c-35.1079-40.28-40.2988-78.2075-43.6372-96.1169l117.313-0.2233 C4407.8569,1086.8877,4406.04,1105.9476,4387.1406,1137.7914z M4297.3218,1136.2788c10.4863,10.5432,13.2397,22.2311,7.769,32.9656 c0.8623-0.0018-12.1255,22.8076-26.0601-3.3917c-5.2979-9.9602-5.4741-15.8788-0.7363-24.8098 C4285.5249,1127.4098,4287.9082,1126.8127,4297.3218,1136.2788z M4278.6533,1086.868 c0.0029,37.7324-29.0303,69.1886-29.0298,71.1969c-15.5093,21.1733-22.5356,22.1736-38.2451,5.4451 c-23.8247-25.3698-51.6509-93.9758-38.5181-94.9689c5.9395-0.4485,98.3726-2.4567,105.7905-2.6238L4278.6533,1086.868z M4176.0229,1141.0031c12.0396,21.2788,3.918,24.7538,3.9185,27.5306c-13.7988,26.014-38.5781-0.1149-26.9536-28.4249 C4161.2715,1119.9331,4164.1665,1120.0458,4176.0229,1141.0031z M4101.4561,1179.3197 c-21.6611,0.0455-79.9392-103.6121-48.6118-112.0288c13.563-3.6443,91.1846-1.0438,98.1641,3.288 C4171.4395,1083.2593,4119.4224,1179.282,4101.4561,1179.3197z M4051.7043,1167.7362c-2.0239,6.433-5.8032,11.7009-8.3967,11.7063 c-4.6382,0.0098-21.9312-15.2821-21.9321-19.3949c-0.0012-5.8629,13.1953-30.2308,16.3762-30.2372 C4045.3967,1129.795,4055.2307,1156.5282,4051.7043,1167.7362z M3996.4409,1162.3307 c0.5491-0.0011-14.9451,17.2141-17.9958,17.2205c-19.5869-0.1063-63.2258-70.7404-60.1943-97.4344l1.7622-15.5182l104.0786-0.1978 C4026.7842,1103.5902,4030.8218,1121.097,3996.4409,1162.3307z M3925.4517,1163.3478 c-4.0227,12.7814-22.0293,14.5015-26.5952,2.5397c-3.5017-9.176,6.6401-35.8109,13.6414-35.8251 C3920.3369,1130.0466,3928.9592,1152.202,3925.4517,1163.3478z M3874.752,1158.3918 c-18.032,20.4222-29.7012,20.1207-47.5803-1.2288c-30.0447-35.8767-31.6157-57.103-37.342-93.0767l111.0068-0.2103 C3900.8499,1115.3455,3903.7014,1125.6066,3874.752,1158.3918z M3798.4573,1168.1935 c-8.5161,13.6412-22.2087,13.9994-26.4109,0.6896c-3.7854-11.988,6.1987-44.0685,13.7197-44.0835 C3794.3247,1124.7825,3804.2891,1158.8531,3798.4573,1168.1935z M3752.7815,1147.1006 c-19.4502,30.5664-31.5388,34.3046-49.2385,15.2246c-17.0669-18.4-39.5247-67.7808-37.4722-82.3989 c2.0979-14.9513,2.7026-12.8506,105.9753-13.0468C3770.835,1102.6306,3772.7649,1115.6931,3752.7815,1147.1006z M3672.4045,1143.6162c7.5684,11.6085,7.6047,14.3574,0.3267,24.8374c-17.6191,25.3677-40.9561,4.4125-25.1428-22.5781 C3658.5215,1127.2139,3661.5291,1126.9403,3672.4045,1143.6162z M3648.6877,1090.2733 c0.0142,44.1631-43.835,114.8494-75.6743,69.4552c-37.7986-53.8861-34.0334-81.5867-34.0381-94.8428 c68.2549,0.3586,40.644,0.2152,109.7043,0.5704L3648.6877,1090.2733z M3552.7195,1169.4431 c-5.1904,8.4679-24.6311,6.5885-28.188-2.7253c-3.78-9.8947,1.9419-35.8785,7.9016-35.8906 C3539.2615,1130.8135,3556.4004,1163.4384,3552.7195,1169.4431z M4867.4019,1161.0758c0,0.5892-17.8726,16.6732-23.1758,16.6843 c-18.646,0.0392-48.2983-63.0607-43.0078-91.5234l3.4502-18.5641c104.5337-0.199,102.5356-2.6389,102.5361,13.6338 C4907.2051,1101.2236,4887.0103,1141.6959,4867.4019,1161.0758z M4922.5137,1028.2209l-1.6592,14.4443 c-628.2383,1.1686-4707.0405-2.9966-4849.9404-4.8071c-5.7856-0.0735-5.2731-20.9477,0.6044-24.5938 c18.2286-11.3093,4375.9819,0.7778,4852.6558,0.5129L4922.5137,1028.2209z M4966.2192,991.0698 c0-0.5526-4928.1348-3.4775-4928.6919-3.462c-11.2877,0.3095-9.7341-10.7726-9.7747-45.13 c2016.5852,2.4121,2535.5344,2.8267,4942.231,8.6306C4971.2778,966.0612,4975.3496,990.0204,4966.2192,991.0698z"/> <path d="M3665.8281,863.4879c-32.9285-1.9037-43.3665,1.8815-36.4038,13.2041c4.5505,7.4032,66.9443,6.9822,71.5176-0.4788 C3706.5122,867.1266,3702.2908,865.5961,3665.8281,863.4879z"/> <path d="M3640.8552,439.8286c-21.0525,23.4442-21.157,82.7103-0.1855,106.0089c13.7117,15.233,39.261,12.0823,52.9854-6.5322 c14.9631-20.2916,15.1064-72.3148,0.2566-92.4105C3680.001,428.0703,3654.4683,424.6691,3640.8552,439.8286z M3691.3,492.1891 c-1.9097,19.8378-11.2007,21.2906-15.627,2.4427c-4.001-17.0377-18.7185-16.5797-18.845,0.5868 c-0.1462,19.6459-11.8188,20.175-15.6924,0.7108c-4.0334-20.2612,3.8032-43.3669,16.3562-48.2266 C3671.6785,442.2106,3693.3647,470.7458,3691.3,492.1891z"/> <path d="M3707.3906,232.0165c1.678-5.1132-8.4346-6.8987-39.0012-6.8864c-38.4414,0.0154-52.3318,4.2647-43.3782,13.2721 C3631.6975,245.1284,3704.9529,239.4494,3707.3906,232.0165z"/> <path d="M3641.3262,194.0885c5.8059,5.8412,61.8403,1.539,63.3547-4.8642c0.7341-3.1056-13.6919-6.2372-32.9722-7.1551 C3640.1365,180.5653,3631.3423,184.0439,3641.3262,194.0885z"/> <path d="M3658.9116,158.8671c34.4626-0.0098,49.8091-3.5994,49.8066-11.6489c-0.001-2.7117-18.5112-4.926-41.1357-4.9203 c-32.9119,0.0083-41.1396,1.6675-41.1377,8.2944C3626.447,157.0231,3633.7119,158.8743,3658.9116,158.8671z"/> <path d="M3832.7388,859.8185c-38.4834,0.0589-47.5647,3.2299-37.6833,13.1616c6.7346,6.7684,74.5164,1.1991,76.9814-6.3238 C3873.7131,861.5415,3863.5413,859.7713,3832.7388,859.8185z"/> <path d="M3821.2358,820.1296c25.5828-1.3894,48.323-4.3522,50.5352-6.5845c5.4827-5.5305-10.3235-15.0172-19.4001-11.6447 c-4.0144,1.4912-23.1279,2.7346-42.4763,2.7623c-28.8254,0.0413-35.1821,1.6714-35.1799,9.0215 C3774.7168,821.4548,3780.9438,822.3175,3821.2358,820.1296z"/> <path d="M3867.5798,221.5773c31.3359-10.272-85.573-24.5152-68.8528,2.706 C3801.543,228.8689,3851.3044,226.9126,3867.5798,221.5773z"/> <path d="M3835.2866,164.3378c-36.2715,0.0106-44.3127,1.5577-44.3108,8.527c0.002,7.0724,7.1272,8.2381,42.0479,6.8878 c27.5566-1.0661,42.8201-4.0035,44.3049-8.5268C3879.0151,166.0858,3868.2876,164.3282,3835.2866,164.3378z"/> <path d="M3785.4834,131.2271c0.0012,4.4035,81.8552,7.0349,92.4475,0.438c13.5564-8.443-4.4617-13.2579-46.9382-12.5407 C3788.7695,119.8377,3773.6394,123.8606,3785.4834,131.2271z"/> <path d="M4005.1968,854.038c-37.5845,0.0572-53.2285,7.2117-37.9961,17.3766c4.1528,2.7718,14.6375,3.7192,23.2991,2.1055 c30.1777-5.6199,52.7183,1.0119,52.7156-11.2648C4043.2139,855.6941,4035.3379,853.9922,4005.1968,854.038z"/> <path d="M3955.5649,824.5278c0.0015,5.6591,9.8137,7.4826,39.7178,7.3723c42.3645-0.153,60.4404-6.1544,50.0398-16.613 C4036.3792,806.2933,3955.5625,814.6118,3955.5649,824.5278z"/> <path d="M4004.437,229.3622c27.9902-1.2678,36.1536-3.5904,37.4897-10.6654c1.4612-7.7339-4.2854-9.0426-39.6604-9.0294 c-39.4351,0.0147-49.9321,4.8891-37.4939,17.4109C3966.9053,229.2286,3984.7559,230.2534,4004.437,229.3622z"/> <path d="M3963.5564,180.7504c3.2546,5.3012,84.5962,2.3096,90.1772-3.3157c6.8123-6.8671-16.6716-12.9922-50.0696-13.0599 C3968.4517,164.3036,3956.4644,169.1978,3963.5564,180.7504z"/> <path d="M4052.4153,127.7299c1.3569-4.1338-13.9819-7.1094-46.1226-8.9444c-47.8677-2.7334-61.1006,0.2494-53.8069,12.1305 C3957.5847,139.2222,4049.6055,136.2872,4052.4153,127.7299z"/> <path d="M4696.9189,864.0072c-0.0005-6.5637-9.459-8.5833-45.9399-9.8098c-45.0571-1.5143-60.1719,2.8534-52.5947,15.201 c-0.0005-2.0179-6.52,6.5546,51.1714,4.5333C4687.3159,872.609,4696.9194,870.5964,4696.9189,864.0072z"/> <path d="M4647.3354,831.0195c42.5586-0.063,52.313-1.5991,52.3125-8.2381c-0.001-10.6595-16.0386-13.7877-62.7715-12.2423 c-31.4492,1.0398-38.5112,2.9647-40.0249,10.9103C4595.2031,830.095,4600.4478,831.0889,4647.3354,831.0195z"/> <path d="M4617.6201,200.0399c0,3.9899,2.854,8.2129,6.3413,9.3839c6.7134,2.2538,35.0542-0.404,47.5659-4.4615 c5.3008-1.7191,5.812-4.4014,1.7715-9.31C4665.6362,186.3442,4617.6191,190.126,4617.6201,200.0399z"/> <path d="M4647.541,148.6431c-33.7778,1.791-47.0034,12.828-20.6826,17.2592c18.3027,3.082,55.9033,0.4747,60.5327-4.1965 C4695.6426,153.3794,4676.5093,147.1073,4647.541,148.6431z"/> <path d="M4650.0093,131.0258c35.5786-0.0083,44.124-1.6118,44.1235-8.2786c-0.0005-10.0707-19.937-8.9535-72.3462-10.6164 c-7.5-0.2401-12.9375,3.3386-14.0659,9.257C4606.0894,129.9338,4610.9233,131.035,4650.0093,131.0258z"/> <path d="M1200.2052,897.1172c10.6631-4.6111,10.6254-4.7945-1.0613-5.153c-6.6667-0.204-13.6582,2.1266-15.536,5.1794 C1179.5695,903.7081,1184.9832,903.6994,1200.2052,897.1172z"/> <path d="M1322.1115,835.9464c-9.2207,0.0136-8.5553,18.087-8.5416,33.7361c0.0393,44.7799,13.1404,42.8241,15.4813-2.3097 C1330.3693,841.9573,1329.0399,835.9361,1322.1115,835.9464z"/> <path d="M1414.4342,820.5485c-5.1234-1.6909-6.903,8.5988-6.8763,39.7511c0.0292,34.1958,1.6272,42.028,8.5696,42.0168 c7.0544-0.0113,8.2469-6.9194,6.8762-39.7502C1421.9346,836.9324,1418.8933,822.0196,1414.4342,820.5485z"/> <path d="M2051.1213,834.8662c-9.1786,0.0136-8.5358,18.0324-8.5248,33.6926c0.0315,44.7221,13.0988,42.7688,15.4413-2.3066 C2059.3572,840.8694,2058.032,834.856,2051.1213,834.8662z"/> <path d="M2089.7124,829.2731c-9.406,0.0139-8.521,20.241-8.5098,36.4582c0.0186,26.6836,1.8708,35.8298,6.9172,34.1493 c4.2671-1.4219,7.5078-15.3049,8.5095-36.4577C2097.95,835.5693,2096.6719,829.2628,2089.7124,829.2731z"/> <path d="M1371.5909,824.787c-6.5215,0.0095-8.287,7.7111-8.2625,36.0422c0.0245,28.3307,1.8032,36.0266,8.3246,36.0162 s8.2866-7.7117,8.2623-36.0416C1379.891,832.4736,1378.1123,824.7775,1371.5909,824.787z"/> <path d="M2676.2036,875.4162c-0.0037-6.5225-7.6484-8.2834-35.7788-8.2401c-28.1333,0.0433-35.7778,1.8281-35.7742,8.3513 s7.6501,8.2842,35.7834,8.2401C2668.5645,883.7233,2676.2073,881.9386,2676.2036,875.4162z"/> <path d="M2633.4229,650.8306c-31.7554-5.0003-1.366,18.217-1.3501,46.4741c0.0146,25.8929,16.5288,26.8534,16.511-5.0443 c-0.02-35.753,16.7502-33.4868,5.3438-54.869c-5.7825-10.8387-4.9927-15.1877,5.439-29.9313 c13.0322-18.4188,11.6804-35.4226-2.3816-29.9846c-11.5422,4.4634-11.7458-32.5507-0.2332-42.1678 c4.5386-3.7914,8.2493-12.5784,8.2454-19.5261c-0.0056-10.1988-2.2844-12.0326-11.8254-9.5163 c-10.647,2.8077-11.4368,1.5255-7.9722-12.9564c7.2808-30.4228,38.3501-75.4763,10.5815-64.7451 c-7.7712,3.0033-8.3486-0.9788-4.8816-33.6799c2.7607-26.0455,1.9521-39.4805-2.7175-45.1268 c-16.4827-19.9357-24.4741,0.1462-15.698,39.4499c7.5444,33.7879,3.8157,51.5531-8.6426,41.1773 c-16.1091-13.4151-19.2734,0.3645-5.0398,21.9474c7.8152,11.8498,14.5962,29.7712,15.0642,39.8251 c0.7468,15.9794-0.7048,18.0638-11.5325,16.5603c-16.1658-2.2434-15.6873,7.2651,1.3918,27.6301 c9.5403,11.3757,13.7747,23.0521,13.7832,38.0032c0.0117,21.023-0.345,21.4184-13.7759,15.2848 c-21.0781-9.6245-22.3169-1.7262-3.3521,21.3565C2636.1042,630.1291,2643.395,652.401,2633.4229,650.8306z"/> <path d="M2643.8025,307.4039c21.0313-1.0311,34.8276-4.2987,36.2322-8.5811c1.6602-5.0632-7.4377-6.9106-33.9697-6.8969 c-29.041,0.015-36.2402,1.7199-36.2363,8.5812C2609.8325,307.4886,2616.106,308.7622,2643.8025,307.4039z"/> <path d="M2680.0154,260.1021c1.6587-5.0631-7.4412-6.9113-33.9719-6.8993c-33.6758,0.0152-42.033,3.4186-32.3242,13.1646 C2620.3533,273.0262,2677.553,267.6194,2680.0154,260.1021z"/> <path d="M2765.6233,882.431c52.8062-2.234,53.0706-12.2274-0.0076-14.3077c-33.4478-1.3105-39.8899-0.145-39.886,7.2159 C2725.7336,882.698,2732.177,883.8462,2765.6233,882.431z"/> <path d="M2747.0313,580.46l-11.5535,1.7793c12.0984,15.3666,35.1663,41.1418,14.8811,48.9897 c-4.5388,1.7562-8.2498,6.6991-8.2476,10.9844c0.0024,4.2852,3.7195,10.8849,8.2615,14.666 c4.541,3.7809,8.261,14.8646,8.2661,24.6302c0.0029,5.2491,1.5989,22.2599,3.5308,21.2864 c7.0867,7.1104,12.9324-2.7627,9.5754-16.1736c-2.4944-9.9635-0.0215-17.4631,8.9138-27.0392 c13.3486-14.3045,11.6125-32.4269-2.5798-26.936c-14.1519,5.4756-10.1958-22.002,5.2742-36.6336 c15.4836-14.6428,20.9817-29.7076-0.0127-24.3893c-12.3291,3.1231-13.7537,1.8042-13.7615-12.7417 c-0.0054-10.1569,5.1328-21.0882,13.7393-29.2266c17.0833-16.1552,19.3586-36.6113,3.0974-27.8471 c-15.6414,8.43-16.8628,7.5137-16.8735-12.652c-0.0066-12.4673,4.4182-22.5795,13.7383-31.3914 c18.6401-17.6265,18.3052-30.0168-0.6816-25.2113l-14.4214,3.6498c2.6963-21.7836,14.1018-83.5132-7.2271-83.4998 c-10.5967,0.0067-16.5793,26.9323-8.7727,39.4804c3.4729,5.5808,6.3176,18.6577,6.3232,29.0605 c0.0085,16.1924-1.5747,18.4984-10.9963,16.0294c-15.6323-4.0954-14.1228,10.1237,2.7651,26.0482 c9.3296,8.7975,13.7659,18.9018,13.7725,31.3692c0.0103,19.1451-8.6804,24.0406-20.9021,11.7746 c-5.1387-5.1572-6.6057-4.1176-6.6011,4.679c0.0034,6.2204,4.9609,15.8097,11.0166,21.3093 C2763.082,546.557,2762.7393,578.0413,2747.0313,580.46z"/> <path d="M2777.6838,280.7963c-40.7161,0.0203-27.5032,17.1569-27.5034,16.6038c4.1748,6.7858,41.1848,7.1479,51.6001,0.5094 C2814.9651,289.5045,2802.6863,280.7838,2777.6838,280.7963z"/> <path d="M2806.5784,254.5125c1.6582-5.062-7.4375-6.9098-33.9563-6.8981c-33.6609,0.0148-42.0142,3.4174-32.3103,13.1614 C2746.9429,267.4332,2804.1169,262.0282,2806.5784,254.5125z"/> <path d="M124.7151,737.7232c-26.3807,0.0344-36.0982,2.0417-36.0919,7.4545c0.0048,4.0747,1.6771,9.0729,3.7156,11.1068 c0.005,4.2546,68.5029,8.0276,68.4811-10.9232C160.8133,739.606,151.7462,737.6879,124.7151,737.7232z"/> <path d="M78.7833,708.8473c-1.8493,5.5584,8.0176,6.804,43.9761,5.5005c58.6987-2.1281,59.5276-12.8073,0.9886-12.7347 C93.8819,701.6501,80.4548,703.8101,78.7833,708.8473z"/> <path d="M120.4719,669.9058c57.0556-2.22,57.2348-12.2641-0.0167-14.3574c-36.2594-1.3246-43.0453-0.1848-43.0366,7.2291 C77.4273,670.1901,84.2159,671.3154,120.4719,669.9058z"/> <path d="M121.388,262.673c-13.9538,0.0065-19.8036,2.6988-21.1495,9.7346c-1.5306,7.9998,2.2265,9.7236,21.1721,9.7142 c18.9443-0.0095,22.6961-1.7369,21.1472-9.7346C141.1958,265.3532,135.3411,262.6665,121.388,262.673z"/> <path d="M117.9814,232.1117c32.4104-0.0133,41.7719-1.8784,44.4389-8.8543c5.9471-15.556-1.9688-18.9459-44.2054-18.9306 c-40.3849,0.0146-41.3325,0.3331-41.3166,13.9084C76.9142,231.8009,77.8802,232.1282,117.9814,232.1117z"/> <path d="M277.7253,737.5236c-37.0589,0.0483-49.2547,4.9095-41.9408,16.718c4.3756,7.0663,80.495,10.2661,80.4735-9.0853 C316.2515,739.3525,306.8257,737.4856,277.7253,737.5236z"/> <path d="M274.579,698.6489c-33.3061,0.0411-41.6313,1.7181-41.6238,8.3833c0.0076,6.6652,8.3365,8.3212,41.6425,8.2791 c33.302-0.0422,41.6251-1.7191,41.6176-8.3833C316.2079,700.2638,307.8812,698.6077,274.579,698.6489z"/> <path d="M227.3533,662.6018c0.0085,7.4458,7.6532,8.502,51.3562,7.0907c68.2879-2.2039,68.2785-12.2564-0.0161-14.3018 C234.9872,654.0812,227.3448,655.1553,227.3533,662.6018z"/> <path d="M274.011,193.1595c-43.4892,0.0148-47.1895,0.8876-47.1779,11.128c0.0116,10.2403,3.7139,11.1104,47.2028,11.0939 c43.4816-0.0166,47.1814-0.8893,47.17-11.128C321.1946,194.0148,317.4929,193.1447,274.011,193.1595z"/> <path d="M317.6197,159.7543c10.6595-10.0892-4.5758-16.6047-38.806-16.596c-38.433,0.0097-58.8823,6.8604-54.4976,18.259 C227.3248,169.2397,309.1407,167.7803,317.6197,159.7543z"/> <path d="M437.5181,871.6931c-33.2032,1.6548-49.6102,11.6616-28.4657,17.3625c14.0763,3.8004,23.3464-1.5856,47.4572-1.7832 c10.0365-0.0659,15.2502-3.0384,15.2441-8.6924C471.7462,871.5739,465.4249,870.3021,437.5181,871.6931z"/> <path d="M477.2644,844.6448c-0.0068-6.2925-8.6639-7.5707-42.5507-6.2294c-26.1706,1.0366-43.3687,4.1786-44.6803,8.1628 C384.0066,864.8817,477.2842,863.0494,477.2644,844.6448z"/> <path d="M447.1832,583.5866c15.3779-12.3005,15.475-12.7263,4.707-20.663c-8.8131-6.4965-9.6202-9.5026-4.0679-15.1483 c9.5728-9.7347,8.6623-40.8615-1.4402-49.2382c-4.5806-3.7981-8.3339-11.4493-8.3399-17.0038 c-0.0124-11.4377-2.4356-13.3609-23.0083-18.2546c-12.3577-2.9388-15.2128-1.3196-18.1058,10.2698 c-4.2782,17.1422,11.5276,34.6469,30.5788,33.8691c10.5291-0.4304,13.7044,2.611,15.0818,14.4492 c2.6802,23.0322-7.0166,36.7972-23.6873,33.6243c-16.2606-3.0942-16.7106-0.856-5.8732,29.1516 c12.816,35.4835,4.7,60.5438,15.4792,56.8387c4.4279-1.5227,6.2173-10.1379,4.9529-23.8592 C431.7881,599.4722,433.9136,594.2011,447.1832,583.5866z"/> <path d="M468.2684,260.5134c-8.4783-8.0613-63.7572-0.8744-63.7472,8.2892C404.536,282.3689,485.5828,276.9763,468.2684,260.5134z"/> <path d="M468.5122,231.599c5.6392-9.1527,0.3995-11.3614-30.27-12.7602c-30.6756-1.3983-42.9601,2.7727-36.9196,12.5362 C401.3304,238.4891,463.2642,240.1162,468.5122,231.599z"/> <path d="M474.113,198.1315c13.7025-22.2406-90.9856-20.4464-79.2314-1.4679C402.8807,204.6589,469.8577,205.0378,474.113,198.1315z "/> <path d="M536.3304,878.6652c-3.0388,7.9543,9.2239,9.9885,9.2233,9.433c45.9142,6.4676,70.3884,3.2689,70.3754-9.1964 C615.9175,867.7409,540.5906,867.5151,536.3304,878.6652z"/> <path d="M578.3035,839.1937c-37.8302-1.1778-58.8922,6.1545-44.445,15.4742c8.9184,5.7531,73.017,4.5796,82.8376-1.5156 C629.5393,845.1808,616.3295,840.3778,578.3035,839.1937z"/> <path d="M552.2612,504.7872c1.9963,3.2256,6.3092,2.7737,11.03-1.1565c11.713-9.7517,16.0825,7.2593,6.7772,26.3837 c-5.9547,12.2361-10.8475,15.2695-22.6309,14.0284c-17.8692-1.8825-19.106,5.7779-4.0251,24.9298 c9.008,11.4411,15.4064,40.5851,14.6192,41.1118c4.6362,34.711,15.7848,36.4182,11.8523,1.8156 c-2.4022-21.1348-0.6725-27.9474,10.4684-41.2311c8.9652-10.6897,11.303-17.1739,7.1221-19.7551 c-10.1775-6.2844,4.685-49.1585-4.9481-55.106c-3.1982-1.9754-5.8209-9.4021-5.8284-16.5044 c-0.0079-7.528-5.6038-16.5735-13.418-21.6908c-13.1051-8.5805-13.6653-8.2791-24.9409,13.433 C510.3857,524.8755,544.2782,491.8839,552.2612,504.7872z"/> <path d="M567.0948,278.3268c19.299,7.8477,47.4384-0.8766,40.2614-12.4821c-5.6254-9.0947-40.2156-7.6618-43.8381,1.8174 C561.8425,272.0469,563.452,276.8456,567.0948,278.3268z"/> <path d="M619.4108,227.7418c3.4332-10.3592-25.3026-4.741-45.7592-9.8461c-14.9077-3.7195-30.7451,6.5353-20.4031,13.2124 C564.5853,238.4271,616.7498,235.7721,619.4108,227.7418z"/> <path d="M582.8676,193.0553c29.9838-0.0102,37.8887-1.7507,37.8818-8.3411c-0.0069-6.6623-8.3256-8.3256-41.596-8.3152 c-38.251,0.0119-47.6299,3.2225-37.8825,12.9681C543.3068,191.4027,562.0259,193.0624,582.8676,193.0553z"/> <path d="M753.2557,880.2482c-2.3976-7.1771-64.6665-9.9979-68.8981-3.12c-1.41,2.2913-0.8948,6.8626,1.1443,10.1579 c5.1385,8.297,39.4817,0.335,59.7597-0.2598C750.8486,886.8624,754.446,883.812,753.2557,880.2482z"/> <path d="M688.6382,854.0707c10.1199,6.4007,49.8327,6.1275,60.1233-0.4093c11.9501-7.591,6.4778-10.123-28.8191-13.3347 C688.272,837.4445,672.9683,844.1626,688.6382,854.0707z"/> <path d="M724.869,570.6273c9.5535-7.7642,11.0067-14.7505,9.9011-47.6569c-1.3104-39.0132-6.608-57.4821-22.1151-77.0973 c-10.4805-13.2572-16.981-7.3376-21.7639,19.8187c-3.0719,17.442-1.6683,21.3286,10.5999,29.3627 c7.7763,5.0903,16.9501,7.5152,20.3858,5.3847c4.4177-2.7404,5.1632,1.5808,2.5463,14.7542 c-4.5023,22.6624-14.3693,29.9626-23.5466,17.4201c-10.595-14.4802-16.3287-2.5722-8.3112,17.2623 c19.3292,47.8146,17.2097,83.9872,28.6686,72.4896c3.5457-3.5587,3.176-11.8934-1.0673-24.0424 C714.4179,581.8621,714.9579,578.6807,724.869,570.6273z"/> <path d="M751.0814,248.5045c-0.0093-9.2489-28.7304-14.1297-50.6578-8.6074c-19.7422,4.9722-15.7053,13.2304,7.7119,15.7786 C740.7185,259.2196,751.0905,257.4884,751.0814,248.5045z"/> <path d="M752.453,211.0374c1.6679-5.0804-7.495-6.9357-34.2086-6.9261c-33.9073,0.0123-42.3203,3.4267-32.5401,13.2072 C692.3857,224.0009,749.9768,218.5805,752.453,211.0374z"/> <path d="M718.7084,186.3234c23.405-1.0465,37.8042-4.1993,39.2488-8.5925c1.6817-5.1136-8.0429-6.9361-36.9754-6.9273 c-31.7206,0.0096-39.2611,1.66-39.254,8.5926C681.7351,186.4413,688.3472,187.6813,718.7084,186.3234z"/> <path d="M3055.3181,822.3267c-12.1135,0.0177-3.5854,16.1692,15.4673,29.2921c22.3572,15.4002,39.95,18.9158,39.6702,7.9272 C3110.2808,852.7078,3065.2532,822.3122,3055.3181,822.3267z"/> <path d="M3310.5979,442.1677c-30.2019,3.4487-43.4038,17.2322-54.9978,57.4199c-6.3269,21.9333-6.9214,31.9492-2.3989,40.4387 c10.1936,19.1354,35.2058,14.6094,63.26-11.4433c27.1323-25.1966,35.9358-51.4578,25.1921-75.1523 C3335.8618,440.6574,3332.9805,439.6123,3310.5979,442.1677z M3326.135,494.5168c-10.5769,20.5438-34.4353,34.6074-26.9375,15.8776 c1.949-4.8684,5.0422-12.5819,6.8738-17.1414c5.1123-12.7275-12.9121-10.1977-19.8071,2.7799 c-7.1733,13.5015-16.4705,14.4603-16.4758,1.698c-0.0056-13.6304,27.4988-40.383,41.5276-40.3944 C3332.8755,457.319,3338.2915,470.9064,3326.135,494.5168z"/> <path d="M3461.8418,298.4083c-0.0696-7.3701-37.6245-30.1155-43.5925-26.4003 C3394.3591,286.8813,3461.9675,311.8843,3461.8418,298.4083z"/> <path d="M3452.2598,260.3494c25.9084,15.7065,37.1563,18.0454,36.8503,7.6643c-0.2144-7.3253-43.6382-37.2674-54.041-37.2631 C3420.9919,230.7564,3430.5293,247.1765,3452.2598,260.3494z"/> <path d="M3479.6904,224.2421c21.55,13.3974,26.0745,14.2228,26.071,4.7567c-0.0034-9.4762-31.6006-32.8951-38.5471-28.5709 C3457.8704,206.2447,3461.3147,212.8182,3479.6904,224.2421z"/> <path d="M838.9547,856.1326c42.5751,18.4634,46.6141,0.1083,22.1483-8.5459c-32.3708-11.4509-40.1855-25.1427-40.1683-7.8546 C820.9395,844.4569,829.0487,851.8373,838.9547,856.1326z"/> <path d="M889.9693,831.3579c1.7722-2.8795-8.374-10.3541-22.5479-16.6108c-30.7285-13.5645-29.9058-13.4763-29.8957-3.2255 C837.5389,824.8289,881.2722,845.4897,889.9693,831.3579z"/> <path d="M963.9265,606.749c3.4739-2.1552,6.3388-10.6374,6.3864-18.8478c0.0781-16.5448,7.4789-31.2075,16.2933-32.2814 c3.1564-0.3843,8.062-1.0122,10.9012-1.3976c7.1305-0.9645,8.7913-19.1813,21.8955-39.298 c10.6808-16.3958,9.3364-51.4457,9.5969-72.9265c-23.4977,2.3198-33.6871,1.1944-35.7885,16.1437 c-2.1892,15.5804,8.0789,29.2586,18.8481,25.107c12.2304-4.7155,9.7189,16.2979-3.6721,30.7276 c-10.7699,11.6039-12.0816,11.8151-18.5359,2.9884c-13.8634-18.9576-19.238-6.504-28.7159,66.5364 C961.1388,587.0085,956.3159,611.4725,963.9265,606.749z"/> <path d="M1095.5356,272.7366c17.8668,9.6932,40.48,11.5297,40.4724,3.2881c-0.0048-5.1527-34.4697-21.7398-46.9283-22.5847 C1076.9149,252.6145,1081.0104,264.8566,1095.5356,272.7366z"/> <path d="M1112.4525,239.6253c17.1212,9.297,34.6008,11.2123,34.5941,3.7899c-0.0049-5.2685-33.6537-22.8058-43.7506-22.8019 C1091.9845,220.6178,1097.1327,231.3061,1112.4525,239.6253z"/> <path d="M1123.4963,211.8853c14.7087,7.9878,40.1342,11.6938,40.1288,5.8492c-0.0048-5.2962-35.9128-24.8457-45.681-24.8424 C1103.4446,192.8659,1106.2694,202.5301,1123.4963,211.8853z"/> <path d="M2913.3494,838.9296c22.4587,16.3166,43.3813,21.8965,43.3765,11.5691c-0.0027-5.6212-47.0525-39.0157-54.9546-39.0043 C2887.6367,811.5148,2892.9543,824.1135,2913.3494,838.9296z"/> <path d="M3091.5662,544.718c18.3545,26.3176,62.7256,5.7137,84.2795-39.1293c20.2373-42.1061,10.4968-70.2553-24.3035-70.2284 c-22.7483,0.0176-42.707,16.1087-57.0886,46.0272C3071.613,528.9035,3091.5645,541.2236,3091.5662,544.718z M3151.1323,451.9403 c38.2466-0.0307,7.1038,67.5762-9.5891,70.8759c-10.8083,2.1371-11.0659,0.3571-2.6467-18.2534 c9.6619-21.3589-2.3567-30.8859-14.8132-11.741c-11.2981,17.3641-19.1052,18.568-19.1123,2.9462 C3104.9636,479.5913,3134.0737,451.954,3151.1323,451.9403z"/> <path d="M3301.6265,258.2405c40.4297,21.4615,46.2102,10.8873,8.8086-16.1131c-17.3057-12.5178-26.9333-16.383-30.8325-12.457 C3271.7317,237.5955,3277.9631,245.6793,3301.6265,258.2405z"/> <path d="M3323.2219,219.3686c24.926,13.2273,28.8347,13.7126,28.8308,3.5782c-0.0032-8.0106-31.9951-30.8282-43.2185-30.8244 C3294.9565,192.1272,3303.9382,209.1356,3323.2219,219.3686z"/> <path d="M1144.8263,839.8394c-13.6912,4.6972-24.8928,9.5534-24.8916,10.7916 C1119.9456,862.4625,1211.1486,817.0862,1144.8263,839.8394z"/> <path d="M1316.2439,763.8875c6.3678-0.0086,8.2889-7.0951,8.2684-30.5016c-0.0146-16.77-2.2493-30.488-4.9651-30.4847 c-7.2878,0.0091-11.6394,14.7197-11.6178,39.2755C1307.9431,757.7891,1310.2816,763.8955,1316.2439,763.8875z"/> <path d="M1355.1328,697.9987c-4.5131,4.5341-9.1709,54.7074-5.613,60.4653 C1367.0369,786.8155,1371.6987,681.355,1355.1328,697.9987z"/> <path d="M1401.4855,761.4796c9.6714,9.601,16.845-9.9878,16.9302-46.2308c0.0392-16.6213-2.2408-23.5546-7.7463-23.5479 c-5.6566,0.0069-8.3077,9.2856-9.646,33.75C1398.9171,764.0234,1402.1337,761.4788,1401.4855,761.4796z"/> <path d="M2039.7632,759.3724c5.7931-2.2395,8.2659-11.3155,8.2527-30.2888c-0.0144-20.3895-2.0653-27.0881-8.2931-27.0804 c-6.3463,0.0079-8.2692,7.0659-8.2528,30.2892C2031.4873,756.9322,2033.0322,761.9748,2039.7632,759.3724z"/> <path d="M2076.7031,761.5704c8.5776-2.8818,10.126-59.5901,1.6294-59.6788c-3.0337-0.0314-6.2571,13.9267-7.1648,31.0184 C2069.9143,756.5197,2071.2449,763.4045,2076.7031,761.5704z"/> <path d="M2315.271,513.4921c-28.1682,0.0256-35.822,1.8069-35.8179,8.335s7.6604,8.2952,35.8284,8.2687 c28.1653-0.0266,35.8176-1.8077,35.8135-8.335C2351.0908,515.2335,2343.4363,513.4664,2315.271,513.4921z"/> <path d="M2310.6763,490.1746c36.554-1.1188,53.9954-3.8031,55.5583-8.5503c1.7227-5.2303-11.2888-6.9082-53.2852-6.8728 c-46.3064,0.039-55.5735,1.4651-55.5688,8.5504C2257.3855,490.4703,2265.7395,491.5502,2310.6763,490.1746z"/> <path d="M2351.0422,438.0541c-0.0037-5.7256-9.4731-7.6026-38.2549-7.5806c-36.7952,0.0281-48.9065,4.8659-41.6501,16.6375 C2278.5696,459.1692,2351.0503,450.9524,2351.0422,438.0541z"/> <path d="M2476.01,516.986c-1.9924,2.0045-0.9468,6.8773,2.3225,10.8288c8.2209,9.9362,54.5457,2.4476,54.5388-8.8151 C2532.8679,512.8135,2481.9497,511.0093,2476.01,516.986z"/> <path d="M2549.3699,482.8508c-0.0039-6.85-10.1003-8.2901-57.8279-8.2498c-47.7363,0.0402-57.834,1.4977-57.8298,8.349 c0.0042,6.8513,10.1038,8.2914,57.8398,8.2498C2539.2793,491.1582,2549.3738,489.7008,2549.3699,482.8508z"/> <path d="M2532.4204,444.6302c9.6152-11.6562,0.5542-14.4109-42.9626-13.0598c-35.6802,1.1081-50.6853,7.6057-40.697,17.6252 C2448.7646,455.8217,2525.3069,453.2536,2532.4204,444.6302z"/> <path d="M4851.1558,553.2662c-44.9165,1.7361-48.438,18.5688-3.3052,18.5228c23.1606-0.0236,27.0908-1.5146,25.4878-9.6673 C4871.9072,554.8356,4866.4912,552.6733,4851.1558,553.2662z"/> <path d="M4845.3198,532.0613c31.8423-1.1009,48.0835-3.8924,49.604-8.5254c1.6978-5.1725-10.0938-6.8773-47.3433-6.8429 c-41.0161,0.0378-49.6123,1.5147-49.6118,8.5255C4797.9692,532.3208,4805.6558,533.4327,4845.3198,532.0613z"/> <path d="M4889.4482,494.9823c7.1201-0.2175,12.2861-3.8516,12.2861-8.6399c0-6.7662-9.4038-8.2559-51.8794-8.2196 c-39.5981,0.0338-51.8887,1.7844-51.8882,7.3908c0,4.0412,1.1084,8.4655,2.4648,9.8311 C4803.7012,498.6396,4868.4712,495.6167,4889.4482,494.9823z"/> <path d="M4185.5186,572.4644c-27.3667,0.0279-40.1655,8.3432-26.7021,17.3484c6.5679,4.3936,53.4746,1.4049,58.728-3.7406 C4224.4146,579.3429,4208.1719,572.4413,4185.5186,572.4644z"/> <path d="M4185.4614,554.5884c22.772-1.1066,30.4673-3.6512,31.7583-10.5021c1.4858-7.882-3.0737-8.668-35.5288-6.1309 c-41.1929,3.2214-46.1973,5.0909-34.3403,12.8336C4151.7803,553.6816,4168.9307,555.3912,4185.4614,554.5884z"/> <path d="M4209.6934,513.9323c4.7617-1.8452,8.6567-6.4819,8.6563-10.3031c-0.001-5.1981-9.9922-6.2498-39.6885-4.1777 c-43.6509,3.0457-45.1436,3.4948-39.915,12.011C4142.5913,517.7258,4195.1851,519.556,4209.6934,513.9323z"/> <path d="M1238.6226,553.2903c-6.4277,0.0063-8.2915,7.2983-8.269,32.3541c0.016,17.7906,1.6228,33.9398,3.5701,35.8878 c0.0005,0.556,13.0717,15.6121,13.0262-35.3073C1246.927,560.6391,1245.0671,553.2839,1238.6226,553.2903z"/> <path d="M1278.6244,553.2504c-8.6317,0.0085-14.379,32.5714-10.5225,59.6159c2.5225,17.6936,12.0629,15.5009,12.1187-2.7854 C1280.332,574.5822,1292.0593,553.2372,1278.6244,553.2504z"/> <path d="M1947.2656,552.5947c-11.9595,0.0118-15.8514,61.3683-11.1587,61.3632c4.1528,15.8888,12.5206,12.8279,12.5795-4.5998 C1948.8011,574.5245,1960.3771,552.5819,1947.2656,552.5947z"/> <path d="M1892.9061,619.1114c5.4637-0.006,14.5139-65.3303,9.717-70.1359 C1884.6121,530.9312,1885.5219,619.1195,1892.9061,619.1114z"/> <path d="M1984.4972,619.0108c6.4371-0.0071,8.2705-7.392,8.252-33.2343C1992.6846,495.4404,1961.6669,619.0359,1984.4972,619.0108z "/> <path d="M4361.9365,586.6222c-14.7813,1.2218-34.1201-0.104-34.1182,10.5135c0.001,5.9986,6.126,8.2653,22.2871,8.2479 c18.2788-0.0197,21.9536-1.7583,20.4395-9.6719C4369.5303,590.4053,4365.6563,586.3148,4361.9365,586.6222z"/> <path d="M4347.0225,545.8312c-24.6768-1.3292-30.1558-0.0219-30.1548,7.1982c0.0015,7.2241,5.4805,8.5165,30.1572,7.1387 C4386.9146,557.9409,4387.1563,547.9928,4347.0225,545.8312z"/> <path d="M4342.0698,495.1008c-36.7524,0.0324-42.5493,2.2276-37.9263,14.3604c0.001,7.6588,58.2021,11.6573,72.2349,2.6848 C4391.2378,502.6441,4375.9951,495.0708,4342.0698,495.1008z"/> <path d="M4500.4385,583.1698c-23.147,0.024-34.1665,5.4256-26.6035,13.0414c1.9243,1.9368,14.1611,3.5106,27.1943,3.4967 c17.4165-0.0186,23.6934-2.2164,23.6929-8.2943C4524.7212,585.3047,4518.3779,583.1511,4500.4385,583.1698z"/> <path d="M4530.1846,546.2344c-0.0005-6.4751-6.5151-7.5233-33.2207-5.3408c-35.5327,2.9034-41.0283,5.1378-35.356,14.3829 C4469.4263,568.0204,4530.186,560.0074,4530.1846,546.2344z"/> <path d="M4527.6719,511.1089c5.1978-8.4866,1.9229-10.197-27.1714-14.1915c-19.104-2.6233-27.3042-1.587-30.6499,3.8749 c-2.5122,4.101-3.355,9.4348-1.8711,11.853C4472.0156,519.2244,4523.5132,517.8988,4527.6719,511.1089z"/> <path d="M1289.6675,415.9853c-8.0885,2.6844-8.5239,41.7746-8.5286,36.5102c-1.3184,27.8981-0.0356,34.2155,6.9442,34.2095 c6.8597-0.0059,8.5541-7.2591,8.5283-36.5097C1296.5879,423.469,1294.7281,414.3063,1289.6675,415.9853z"/> <path d="M1918.4152,414.1594c-9.4111,0.0069-17.7604,72.0179-2.5853,72.0048c5.9801-0.0052,5.7882,0.9334,8.2069-40.1617 C1925.4534,421.9274,1924.0808,414.1552,1918.4152,414.1594z"/> <path d="M1969.0319,414.1222c-6.3969,0.0047-9.0289,7.8504-10.6848,31.8532c-1.4084,20.3901-1.0658,35.9994-0.1592,35.9987 c4.782,9.7437,12.4266,2.9477,12.4718-11.0868C1970.7772,435.2804,1982.5555,414.1122,1969.0319,414.1222z"/> <path d="M2011.9365,414.0906c-11.5175,0.0085-6.9889,20.4739-11.3217,54.0026c-3.4138,26.4061,11.7366,23.7856,16.0924-2.7822 C2022.4631,430.1985,2020.9622,414.084,2011.9365,414.0906z"/> <path d="M1328.3823,415.948c-7.1847,2.3742-12.5387,44.0731-7.3853,57.5024 C1335.7428,511.8734,1341.2695,411.689,1328.3823,415.948z"/> <path d="M1869.7322,271.5314c-7.1805,2.3851-12.7473,60.02-7.182,74.5423 C1876.5376,382.5742,1882.9659,267.1416,1869.7322,271.5314z"/> <path d="M1259.7355,346.5319c8.5972-2.8754,8.4608-66.1-0.1498-68.9775c-8.2731-2.7654-10.6224,9.8544-8.1708,43.8951 C1251.9681,321.4491,1252.5768,348.9263,1259.7355,346.5319z"/> <path d="M1283.5033,325.9042c4.7631,23.7658,12.8536,20.5368,13.9154-5.5531c1.1069-27.2287,3.8162-39.9952-4.3734-42.7271 C1285.0508,274.9567,1279.2129,304.4951,1283.5033,325.9042z"/> <path d="M1926.1553,304.7619c-0.1853-34.0825-0.9187-36.4372-8.2979-26.6327c-8.1448,10.8214-11.2395,53.4599-4.3794,60.335 C1923.0205,348.0292,1926.3401,339.1996,1926.1553,304.7619z"/> <path d="M1960.5546,340.8658c4.5214-1.5009,7.7993-14.2471,8.8362-34.3552c1.2549-24.336-0.0677-31.3999-5.5393-29.5846 c-4.5209,1.5005-7.7994,14.2469-8.8364,34.3556C1953.7609,335.618,1955.0835,342.6817,1960.5546,340.8658z"/> <path d="M1299.9288,200.0507c19.6644,19.6905,15.8431-101.5789-0.235-59.4709 C1295.2626,152.1919,1295.4318,195.548,1299.9288,200.0507z"/> <path d="M1907.7075,199.8359c8.2903,8.3121,13.0239-4.5263,13.0013-35.2631c-0.0187-25.5603-1.8728-32.9095-8.3029-32.908 c-6.4128,0.0015-8.2738,7.2849-8.2554,32.3158C1904.175,197.0371,1907.707,199.2798,1907.7075,199.8359z"/> <path d="M1957.5265,199.967c8.8672,8.8913,12.0505,1.4115,13.7601-32.3258c1.236-24.4095-0.2078-36.003-4.4832-36.002 C1948.6836,131.6787,1953.4403,195.8705,1957.5265,199.967z"/> <path d="M1337.5826,198.3384c6.7345-0.0024,8.5791-6.6763,8.558-30.9621c-0.0354-40.7196-13.1373-38.7848-15.4962,2.2885 C1329.327,192.6073,1330.7147,198.3408,1337.5826,198.3384z"/> <path d="M1995.9985,194.264c19.6362,19.6899,15.5398-95.1687-0.2202-53.859 C1991.3627,151.9839,1991.5156,189.7695,1995.9985,194.264z"/> </g> </svg>